<svg xmlns="http://www.w3.org/2000/svg" width="364" height="92" fill="none"><g clip-path="url(#a)"><path fill="#1C253B" d="M43.025.962c.68 0 1.3.107 1.86.32.56.213 1.033.507 1.42.88.4.36.707.793.92 1.3.213.493.32 1.02.32 1.58 0 .573-.107 1.113-.32 1.62-.213.507-.52.947-.92 1.32-.387.373-.86.673-1.42.9-.56.213-1.18.32-1.86.32h-2.32v5.76h-1.48v-14h3.8Zm-.1 6.84a3.86 3.86 0 0 0 1.3-.2 3.08 3.08 0 0 0 .98-.58c.267-.253.467-.547.6-.88.147-.333.22-.687.22-1.06s-.073-.72-.22-1.04a2.284 2.284 0 0 0-.6-.86 2.892 2.892 0 0 0-.98-.6c-.373-.147-.807-.22-1.3-.22h-2.22v5.44h2.22Zm9.719 7.32a5.07 5.07 0 0 1-1.82-.32 4.455 4.455 0 0 1-1.44-.9c-.4-.4-.72-.88-.96-1.44-.227-.56-.34-1.193-.34-1.9 0-.733.12-1.38.36-1.94a4.347 4.347 0 0 1 1-1.44c.426-.387.906-.68 1.44-.88a4.91 4.91 0 0 1 1.7-.3c.68 0 1.28.127 1.8.38.533.24.98.567 1.34.98.36.413.633.88.82 1.4.186.507.28 1.033.28 1.58v.5h-7.78v-1.22h7.16l-.82 1.04v-.44c0-.413-.074-.793-.22-1.14a2.609 2.609 0 0 0-.62-.92 2.817 2.817 0 0 0-.94-.62 2.736 2.736 0 0 0-1.16-.24c-.414 0-.8.08-1.16.24-.36.147-.674.36-.94.64-.254.28-.454.62-.6 1.02-.147.387-.22.827-.22 1.32 0 .507.08.967.24 1.38.16.4.38.747.66 1.04.293.28.633.5 1.02.66.4.147.826.22 1.28.22.56 0 1.08-.107 1.56-.32a3.04 3.04 0 0 0 1.18-.92l.94.86c-.427.573-.98 1-1.66 1.28-.667.267-1.367.4-2.1.4Zm12.57-.16-4.22-4.6 3.54-4.2h1.54v.2l-3.36 3.84 4.16 4.56v.2h-1.66Zm-5.56-4.1v-1.22h2.08v1.22h-2.08Zm-.48 4.1V6.162h1.44v8.8h-1.44Zm12.746.16a4.6 4.6 0 0 1-1.78-.34 4.673 4.673 0 0 1-1.44-.98c-.4-.413-.714-.9-.94-1.46a4.805 4.805 0 0 1-.34-1.82 4.6 4.6 0 0 1 .34-1.78c.226-.56.54-1.04.94-1.44a4.18 4.18 0 0 1 1.42-.96c.56-.227 1.16-.34 1.8-.34.64 0 1.233.113 1.78.34.546.227 1.02.54 1.42.94.4.4.713.88.94 1.44.226.547.34 1.147.34 1.8s-.114 1.26-.34 1.82a4.506 4.506 0 0 1-.94 1.46c-.4.413-.874.74-1.42.98a4.6 4.6 0 0 1-1.78.34Zm0-1.3c.453 0 .866-.08 1.24-.24a2.74 2.74 0 0 0 .96-.68c.266-.293.473-.64.62-1.04.146-.413.22-.86.22-1.34 0-.48-.074-.913-.22-1.3a2.91 2.91 0 0 0-.62-1.02 2.53 2.53 0 0 0-.96-.66 3.116 3.116 0 0 0-1.24-.24c-.454 0-.867.08-1.24.24a2.71 2.71 0 0 0-.98.66 2.91 2.91 0 0 0-.62 1.02c-.147.387-.22.82-.22 1.3 0 .48.073.927.22 1.34.16.4.373.747.64 1.04.266.293.586.52.96.68.373.16.786.24 1.24.24Zm6.026 1.14 1.54-8.8h.92l2.92 6.32 2.86-6.32h.92l1.54 8.8h-1.36l-1.02-6.1-2.84 6.1h-.34l-2.8-5.98-1.02 5.98h-1.32Zm16.67.16c-.653 0-1.26-.107-1.82-.32a4.455 4.455 0 0 1-1.44-.9c-.4-.4-.72-.88-.96-1.44-.226-.56-.34-1.193-.34-1.9 0-.733.12-1.38.36-1.94a4.348 4.348 0 0 1 1-1.44c.427-.387.907-.68 1.44-.88a4.91 4.91 0 0 1 1.7-.3c.68 0 1.28.127 1.8.38.534.24.98.567 1.34.98.36.413.634.88.82 1.4.187.507.28 1.033.28 1.58v.5h-7.78v-1.22h7.16l-.82 1.04v-.44c0-.413-.073-.793-.22-1.14a2.608 2.608 0 0 0-.62-.92 2.817 2.817 0 0 0-.94-.62 2.736 2.736 0 0 0-1.16-.24c-.413 0-.8.08-1.16.24a2.68 2.68 0 0 0-.94.64c-.253.28-.453.62-.6 1.02-.146.387-.22.827-.22 1.32 0 .507.08.967.24 1.38.16.4.38.747.66 1.04.294.28.634.5 1.02.66.4.147.827.22 1.28.22.56 0 1.08-.107 1.56-.32a3.04 3.04 0 0 0 1.18-.92l.94.86c-.426.573-.98 1-1.66 1.28-.666.267-1.366.4-2.1.4Zm7.39-4.2v-1.3h5.88v1.3h-5.88Zm-.86 4.04V6.162h1.44v8.8h-1.44Zm6.14 0V6.162h1.44v8.8h-1.44Zm4.026-1c.2-.347.373-.713.52-1.1.147-.4.267-.84.36-1.32.107-.48.187-1 .24-1.56.053-.573.08-1.2.08-1.88v-1.94h6.18v7.8h-1.44v-7.02l.82.52h-4.88l.7-.52v1.72c0 .533-.027 1.047-.08 1.54-.04.48-.1.94-.18 1.38-.08.44-.187.86-.32 1.26-.12.4-.26.793-.42 1.18l-1.58-.06Zm-.94 3.2v-3.5h9.94v3.5h-1.3v-2.2h-7.34v2.2h-1.3Zm15.376-2.04c-.64 0-1.234-.113-1.78-.34a4.666 4.666 0 0 1-1.44-.98c-.4-.413-.714-.9-.94-1.46a4.799 4.799 0 0 1-.34-1.82c0-.64.113-1.233.34-1.78.226-.56.54-1.04.94-1.44.4-.413.873-.733 1.42-.96.56-.227 1.16-.34 1.8-.34.64 0 1.233.113 1.78.34.546.227 1.02.54 1.42.94.4.4.713.88.94 1.44.226.547.34 1.147.34 1.8s-.114 1.26-.34 1.82a4.51 4.51 0 0 1-.94 1.46c-.4.413-.874.74-1.42.98-.547.227-1.14.34-1.78.34Zm0-1.3c.453 0 .866-.08 1.24-.24.373-.16.693-.387.96-.68.266-.293.473-.64.62-1.04.146-.413.22-.86.22-1.34 0-.48-.074-.913-.22-1.3-.147-.4-.354-.74-.62-1.02a2.535 2.535 0 0 0-.96-.66 3.12 3.12 0 0 0-1.24-.24c-.454 0-.867.08-1.24.24-.374.147-.7.367-.98.66-.267.28-.474.62-.62 1.02-.147.387-.22.82-.22 1.3 0 .48.073.927.22 1.34.16.4.373.747.64 1.04.266.293.586.52.96.68.373.16.786.24 1.24.24Zm6.824 1.14v-8.8h3.8c.92 0 1.6.2 2.04.6.44.387.66.887.66 1.5 0 .293-.054.56-.16.8-.107.227-.26.427-.46.6-.187.16-.414.28-.68.36-.267.08-.567.12-.9.12v-.08c.426 0 .82.04 1.18.12.36.08.673.213.94.4.266.173.473.407.62.7.16.293.24.66.24 1.1 0 .8-.28 1.433-.84 1.9-.56.453-1.407.68-2.54.68h-3.9Zm1.44-.96-.18-.34h2.24c.826 0 1.42-.12 1.78-.36.373-.24.56-.607.56-1.1 0-.52-.187-.88-.56-1.08-.36-.213-.887-.32-1.58-.32h-2.44v-1.18h2.18c.533 0 .946-.073 1.24-.22.293-.16.44-.447.44-.86 0-.4-.14-.68-.42-.84-.28-.16-.714-.24-1.3-.24h-2.14l.18-.48v7.02Zm14.754.96v-2.22l-.08-.3v-3.66l.08-.14v-2.48h1.36v8.8h-1.36Zm-3.2.16c-.56 0-1.1-.1-1.62-.3a4.107 4.107 0 0 1-1.36-.9c-.386-.4-.7-.88-.94-1.44-.226-.573-.34-1.213-.34-1.92 0-.707.107-1.34.32-1.9.227-.56.534-1.033.92-1.42.387-.4.84-.707 1.36-.92a4.333 4.333 0 0 1 1.66-.32c.48 0 .914.06 1.3.18.387.12.72.28 1 .48.28.2.507.427.68.68.174.24.28.48.32.72v2.36h-.18c0-.4-.066-.787-.2-1.16-.12-.373-.306-.7-.56-.98a2.666 2.666 0 0 0-.92-.68c-.36-.173-.78-.26-1.26-.26-.413 0-.8.073-1.16.22-.36.133-.673.34-.94.62-.266.267-.473.6-.62 1-.146.4-.22.853-.22 1.36 0 .48.067.92.2 1.32.147.4.347.747.6 1.04.254.28.56.5.92.66a3.1 3.1 0 0 0 1.18.22c.48 0 .907-.087 1.28-.26.374-.187.68-.427.92-.72.254-.307.447-.647.58-1.02.134-.387.2-.773.2-1.16h.28v2.12c-.066.333-.2.647-.4.94-.2.28-.446.527-.74.74a3.852 3.852 0 0 1-1.02.52c-.386.12-.8.18-1.24.18Zm8.413-4.2v-1.3h5.88v1.3h-5.88Zm-.86 4.04V6.162h1.44v8.8h-1.44Zm6.14 0V6.162h1.44v8.8h-1.44Zm7.866-5.82c1.173 0 2.06.227 2.66.68.6.453.9 1.187.9 2.2 0 .987-.3 1.727-.9 2.22-.6.48-1.554.72-2.86.72h-3.22v-8.8h1.44v2.98h1.98Zm4.8 5.82v-8.8h1.44v8.8h-1.44Zm-5.22-1.3c.36 0 .693-.02 1-.06.32-.04.593-.113.82-.22.226-.12.4-.287.52-.5.133-.213.2-.5.2-.86 0-.613-.214-1.027-.64-1.24-.414-.227-.994-.34-1.74-.34h-1.72v3.22h1.56Zm16.291 6.1h-1.44V6.162h1.36v2.48l.08.14v10.98Zm3.12-4.64c-.44 0-.853-.06-1.24-.18a3.852 3.852 0 0 1-1.02-.52 3.253 3.253 0 0 1-.74-.74 2.546 2.546 0 0 1-.4-.94v-2.12h.28a3.548 3.548 0 0 0 .76 2.18c.253.293.567.533.94.72.373.173.8.26 1.28.26.427 0 .82-.073 1.18-.22.36-.16.667-.38.92-.66.253-.293.447-.64.58-1.04.147-.4.22-.84.22-1.32 0-.507-.073-.96-.22-1.36a2.709 2.709 0 0 0-.62-1 2.467 2.467 0 0 0-.94-.62 2.95 2.95 0 0 0-1.16-.22c-.48 0-.907.087-1.28.26-.36.173-.667.4-.92.68-.24.28-.427.607-.56.98-.12.373-.18.76-.18 1.16h-.18v-2.36c.04-.24.147-.48.32-.72.173-.253.4-.48.68-.68.28-.2.613-.36 1-.48s.82-.18 1.3-.18c.587 0 1.14.107 1.66.32.52.213.973.52 1.36.92.387.387.687.86.9 1.42.227.56.34 1.193.34 1.9 0 .707-.12 1.347-.36 1.92a4.444 4.444 0 0 1-.92 1.44c-.387.387-.84.687-1.36.9-.52.2-1.06.3-1.62.3Zm10.492 0c-.653 0-1.26-.107-1.82-.32a4.47 4.47 0 0 1-1.44-.9c-.4-.4-.72-.88-.96-1.44-.226-.56-.34-1.193-.34-1.9 0-.733.12-1.38.36-1.94a4.363 4.363 0 0 1 1-1.44c.427-.387.907-.68 1.44-.88.547-.2 1.114-.3 1.7-.3.68 0 1.28.127 1.8.38.534.24.98.567 1.34.98.36.413.634.88.82 1.4.187.507.28 1.033.28 1.58v.5h-7.78v-1.22h7.16l-.82 1.04v-.44a2.89 2.89 0 0 0-.22-1.14 2.594 2.594 0 0 0-.62-.92 2.81 2.81 0 0 0-.94-.62 2.732 2.732 0 0 0-1.16-.24c-.413 0-.8.08-1.16.24-.36.147-.673.36-.94.64-.253.28-.453.62-.6 1.02-.146.387-.22.827-.22 1.32 0 .507.08.967.24 1.38.16.4.38.747.66 1.04.294.28.634.5 1.02.66.4.147.827.22 1.28.22.56 0 1.08-.107 1.56-.32a3.032 3.032 0 0 0 1.18-.92l.94.86c-.426.573-.98 1-1.66 1.28-.666.267-1.366.4-2.1.4Zm6.53-.16v-8.8h1.44v7.04l-.84.1 6.16-7.14h.82v8.8h-1.44v-7.14l.86-.1-6.24 7.24h-.76Zm3.8-10.2c-.413 0-.793-.053-1.14-.16a2.82 2.82 0 0 1-.9-.5 2.111 2.111 0 0 1-.58-.78c-.133-.32-.2-.687-.2-1.1h1.3c0 .427.134.773.4 1.04.267.253.654.38 1.16.38.48 0 .86-.12 1.14-.36.28-.253.42-.607.42-1.06h1.28c0 .413-.073.78-.22 1.1a2.292 2.292 0 0 1-.6.78c-.253.213-.56.38-.92.5-.346.107-.726.16-1.14.16Zm8.666 10.2v-7.5h-2.88v-1.3h7.2v1.3h-2.88v7.5h-1.44Zm6.323 0v-8.8h1.44v7.04l-.84.1 6.16-7.14h.82v8.8h-1.44v-7.14l.86-.1-6.24 7.24h-.76Zm11.446-4.04v-1.3h5.88v1.3h-5.88Zm-.86 4.04V6.162h1.44v8.8h-1.44Zm6.14 0V6.162h1.44v8.8h-1.44Zm4.446 0v-8.8h5.68v1.3h-4.24v7.5h-1.44Zm14.163 0v-2.22l-.08-.3v-3.66l.08-.14v-2.48h1.36v8.8h-1.36Zm-3.2.16c-.56 0-1.1-.1-1.62-.3a4.107 4.107 0 0 1-1.36-.9c-.386-.4-.7-.88-.94-1.44-.226-.573-.34-1.213-.34-1.92 0-.707.107-1.34.32-1.9.227-.56.534-1.033.92-1.42.387-.4.84-.707 1.36-.92a4.333 4.333 0 0 1 1.66-.32c.48 0 .914.06 1.3.18.387.12.72.28 1 .48.28.2.507.427.68.68.174.24.28.48.32.72v2.36h-.18c0-.4-.066-.787-.2-1.16-.12-.373-.306-.7-.56-.98a2.666 2.666 0 0 0-.92-.68c-.36-.173-.78-.26-1.26-.26-.413 0-.8.073-1.16.22-.36.133-.673.34-.94.62-.266.267-.473.6-.62 1-.146.4-.22.853-.22 1.36 0 .48.067.92.2 1.32.147.4.347.747.6 1.04.254.28.56.5.92.66a3.1 3.1 0 0 0 1.18.22c.48 0 .907-.087 1.28-.26.374-.187.68-.427.92-.72.254-.307.447-.647.58-1.02.134-.387.2-.773.2-1.16h.28v2.12c-.066.333-.2.647-.4.94-.2.28-.446.527-.74.74a3.852 3.852 0 0 1-1.02.52c-.386.12-.8.18-1.24.18Zm6.853-.16 1.54-8.8h.92l2.92 6.32 2.86-6.32h.92l1.54 8.8h-1.36l-1.02-6.1-2.84 6.1h-.34l-2.8-5.98-1.02 5.98h-1.32Zm13.004 0v-8.8h1.44v7.04l-.84.1 6.16-7.14h.82v8.8h-1.44v-7.14l.86-.1-6.24 7.24h-.76Z" opacity=".5"/><g fill="#1C253B" clip-path="url(#b)" opacity=".3"><path d="M69.257 80.438c-3.805-.926-5.81-3.723-6.658-7.382-1.013-4.332-.93-8.685.414-12.954 1.054-3.322 3.287-5.383 6.637-6.161 2.895-.673 5.81-.652 8.664.084 3.287.862 5.314 3.154 6.286 6.372 1.364 4.52 1.282 9.105-.021 13.627-1.158 4.058-3.99 6.182-8.023 6.75-2.791.42-5.81.021-7.299-.337Zm.972-13.144c.207 2.313.062 4.669.372 6.982.228 1.64 1.489 2.544 3.164 2.566 1.592.02 2.874-.842 3.122-2.419.538-4.879.496-9.442 0-14.174-.31-1.787-1.572-2.65-3.288-2.565-1.654.063-2.832.988-3.06 2.713-.269 2.25-.103 4.542-.31 6.897ZM109.969 73.835c-.951 3.68-3.329 5.993-7.05 6.75-2.709.547-5.438.547-8.126-.084-3.598-.862-5.728-3.344-6.68-6.835-1.198-4.458-1.116-8.937.207-13.353 1.055-3.554 3.433-5.7 7.03-6.435 2.813-.568 5.625-.568 8.396.19 4.404 1.219 6.12 4.689 6.823 8.873.496 4.311.186 8.391-.6 10.894ZM95.558 67.21c.186 2.356 0 4.606.31 6.856.248 1.83 1.406 2.734 3.143 2.776 1.695.042 3.101-.8 3.246-2.629.372-4.794.372-9.169-.021-13.9-.165-1.914-1.447-2.67-3.205-2.65-1.716.042-2.915.925-3.163 2.755-.31 2.271-.124 4.584-.31 6.792ZM43.759 72.299c1.427 3.554 3.494 4.731 6.451 3.743 1.737-.568 2.564-1.746 2.523-3.575-.042-1.64-.869-2.839-2.585-3.197-1.571-.336-3.184-.357-4.88-.546V64.77c1.365-.105 2.73-.147 4.094-.315 1.985-.231 3.04-1.493 2.957-3.386-.083-1.956-1.178-3.007-3.225-3.112-2.068-.105-3.081.61-4.611 3.26-2.089-.295-4.218-.59-6.472-.926 1.096-2.86 2.915-4.753 5.541-5.762 3.805-1.451 7.733-1.472 11.58-.19 3.825 1.263 5.623 4.564 4.61 7.95-.496 1.661-1.654 2.692-3.08 3.449-.476.273-.993.483-1.696.799.744.294 1.323.525 1.902.757 5.252 2.124 4.425 8.643 1.551 10.914-2.833 2.25-6.1 2.839-9.656 2.839-2.295 0-3.867-.337-5.748-.883-3.205-.926-5.15-3.386-5.831-6.961 2.191-.315 4.342-.589 6.575-.904ZM90.905 37.433c2.522.925 3.411 2.355 3.267 5.236-.145 2.713-1.53 4.774-3.97 5.026-2.874.294-5.79.063-8.767.063v-19.62c2.977 0 5.975-.21 8.911.063 2.089.19 3.06 1.935 3.226 4.017.165 1.997-.269 3.743-2.171 4.794-.124.063-.248.126-.352.21-.062 0-.082.063-.144.21ZM85.3 45.066c1.654-.063 3.37.337 4.363-1.325.703-1.198.662-2.586-.124-3.743-1.075-1.556-2.688-.988-4.218-1.01-.02 2.062-.02 3.975-.02 6.078Zm.041-14.215v5.236c1.53.084 3.164.357 3.888-1.178.413-.862.351-2.313-.104-3.133-.785-1.43-2.398-.947-3.784-.925ZM41.692 47.968h-3.887v-20.02H50.21v19.978h-3.784v-16.76h-4.714c-.021 5.572-.021 11.103-.021 16.802ZM108.892 32.806c-.599-3.785-2.771-5.468-6.72-5.362-3.515.084-5.748 2.018-6.037 5.677a67.157 67.157 0 0 0 0 9.569c.248 3.596 2.46 5.53 5.934 5.594 4.197.084 6.265-1.493 6.844-5.342.248-1.661.289-3.364.413-5.068-.124-1.682-.165-3.386-.434-5.068Zm-3.97 10.536c-.186 1.261-.951 2.124-2.357 2.124-1.406 0-2.336-.82-2.378-2.082-.124-3.638-.103-7.297.021-10.956.041-1.304 1.034-2.082 2.378-2.082 1.385.02 2.15.904 2.336 2.166.269 1.766.062 3.554.228 5.341-.145 1.83.041 3.68-.228 5.489ZM79.824 47.968h-3.97c-.33-1.388-.64-2.734-.972-4.164h-5.314c-.33 1.388-.64 2.755-.971 4.142H64.73c.02-.336-.02-.63.062-.925 1.55-5.993 3.122-11.965 4.652-17.959.248-.946.641-1.24 1.613-1.22 3.598.043 3.598 0 4.55 3.555 1.343 5.11 2.687 10.24 4.01 15.372.083.336.125.715.207 1.199ZM74.2 40.376c-.64-2.986-1.24-5.804-1.84-8.643-.103 0-.207.021-.31.021-.6 2.839-1.2 5.678-1.82 8.622h3.97ZM52.838 47.904V28.011c2.916 0 5.79-.273 8.602.084 2.709.336 4.3 3.659 3.722 6.919-.538 3.133-2.378 4.69-5.686 4.857-2.771.127-2.771.127-2.792 2.965v5.047c-1.282.021-2.48.021-3.846.021Zm3.97-17.075v6.12c1.53.062 3.081.399 3.991-1.115.744-1.241.724-2.65.02-3.89-.909-1.599-2.48-1.073-4.01-1.115ZM111.431 27.338h2.792c1.55 0 1.881 1.114 1.881 2.082 0 .694-.289 1.703-1.034 1.808v.063c1.386.148.31 1.851 1.055 3.365h-1.386c-.248-.526-.124-.862-.206-1.85-.062-.884-.621-.842-.807-.842h-.909v2.692h-1.386v-7.318Zm1.386 3.28h1.033c.311 0 .786-.063.786-.925 0-.799-.31-.946-.827-.946h-.992v1.872ZM117.988 27.338v4.269c0 1.43.29 1.85.993 1.85.703 0 .992-.4.992-1.85v-4.27h1.386v4.543c0 1.62-.372 2.986-2.378 2.986-2.006 0-2.378-1.367-2.378-2.986v-4.542h1.385Z"/></g><g fill="#1C253B" opacity=".3"><path d="M168.699 34.782c.129.207.215.63.439.63l1.439-1.68h.155c.026 3.41.095 6.555.06 10.027-.034.086-.155.026-.249.06-.5-3.265-.621-6.65-2.369-9.399a1.779 1.779 0 0 0-1.094-.723c-.405-.086-.75.206-.931.542l-.224.724.035 22.932c.06.362.249.724.62.87.31.06.715.06.999-.146.371-.301.328-.75.328-1.197V47.386c-.216-.268-.922.086-.888-.328 1.74 0 3.455-.12 5.203-.034-.06.327-.594.06-.749.361V58.49c-.095.086.095.422-.19.301l-1.404-2.188h-.094c-.405.956-1.12 2.188-2.335 2.335-1.404.267-2.774-.267-3.584-1.465-1.525-2.722-1.525-6.082-1.714-9.347-.06-3.893-.095-7.873 1.094-11.345.465-1.378 1.525-3.084 3.205-3.325 1.059-.173 1.783.542 2.248 1.326ZM188.727 33.792c-.439.12-.939-.06-1.344.146v24.466c.405.241.93.026 1.344.026 1.215-.776 1.585-2.188 2.024-3.412.69-2.127 1.094-4.367 1.31-6.676.06-.06.155-.026.215-.026.155 3.412.06 7.15.095 10.467-3.084.095-6.857.034-9.623 0v-.172c.345-.095.75.12.991-.181-.026-8.115.035-16.196 0-24.492-.31-.146-.775-.034-1.094-.12-.06-.207.224-.147.37-.181 1.87-.06 3.799 0 5.703-.035v.19h.009ZM147.074 33.645c.12.06.095.207.06.267-.465.034-1.137-.12-1.507.146V58.43c.37.241.732 0 1.171.086.715-.267.999-1.016 1.344-1.585 1.215-2.636 1.749-5.539 2.119-8.502h.25c.035 3.411.06 7.003-.06 10.363l-9.597-.034c-.009-.44.87-.164 1.154-.405V33.938l-.93-.06v-.242l5.996.009ZM161.046 43.31h-.267c-.465-2.963-.905-5.926-2.24-8.537-.534-.75-1.525-.93-2.335-.775l-.146.147V45.73c0 .06-.009.147.086.207.75-.12 1.18-.87 1.465-1.439.499-1.464.844-2.998.964-4.608.061-.06.121-.035.216-.035.034 4.1.034 8.322 0 12.457-.06.086-.19.086-.25.086-.155-.663-.189-1.378-.284-2.068-.405-1.438-.379-3.325-2.025-4.04h-.181V58.31c0 .12-.008.24.112.24 1.62.208 2.275-1.558 2.835-2.575.87-2.309 1.335-4.764 1.679-7.245.095-.06.199-.086.293-.034v10.001l-.112.087-9.579-.018v-.206c.31-.121.887.086 1.137-.181v-24.38c-.31-.207-.672 0-.948-.18v-.087c3.084-.06 6.401-.06 9.58 0v9.58ZM181.56 58.49c-.439-2.335-2.524-24.346-2.524-24.346l-.095-.448c-.62-.06-1.344-.06-1.964 0l-.37 2.335-3.015 20.666c-.13.63-.25 1.379-.965 1.706-.155.207-.776 0-.534.388l3.178-.035c.156-.327-.284-.267-.439-.327-.655-.267-.844-.896-.904-1.499.189-1.172.215-2.395.534-3.532l2.713-.026.155.12c.155 1.68.345 3.206.405 4.911-.275.181-.62.12-.965.181.035.06-.025.147.035.181l5.393-.034v-.207l-.638-.035Zm-4.454-5.385c-.87-.034-1.774.06-2.618-.086l1.809-12.25.964 12.216-.155.12ZM155.804 60.41c-.439 2.067-2.369 4.342-4.678 4.669-2.334.362-4.893.155-7.228-.086l-.094.241-.345 3.024.06.06c2.99-1.886 7.823-1.973 10.812-.06 1.654 1.171 2.464 2.877 2.153 4.85-.249 1.886-2.084 3.618-3.928 4.1-3.454.991-7.693.664-10.441-1.524-.87-.69-1.12-1.732-.904-2.783.215-.896 1.094-1.766 1.99-2.007a3.197 3.197 0 0 1 2.558.388c.81.629 1.275 1.438 1.249 2.395-.034 1.016-.715 1.972-1.68 2.455-.344.146-.749.18-1.094.327 1.56.81 3.489.93 5.393.836v-9.942c-2.334-.267-4.454.422-6.297 1.585l-.371-.206c.25-2.817.621-5.686.931-8.503l.095-.026c3.713.56 8.106 1.103 11.819.207ZM190.906 63.339c-1.369-1.74-3.239-2.817-5.392-3.024-3.084-.301-5.729.956-7.538 3.386-1.93 2.395-2.085 6.262-.87 9.01 1.12 2.663 3.988 4.877 6.978 5.032 3.333.12 6.262-2.033 7.598-4.816 1.473-2.912 1.257-7.012-.776-9.588Zm-5.203 13.775a4.492 4.492 0 0 1-2.524 0v-16.23c.75-.181 1.749-.302 2.524-.035v16.265ZM173.621 64.649c-.594-1.258-1.714-2.55-3.024-3.265-2.308-1.379-5.883-1.465-8.158.06-2.929 1.887-4.359 4.85-4.109 8.236.216 3.29 2.524 6.59 5.858 7.693 3.145.956 6.229-.302 8.287-2.662 2.206-2.636 2.826-7.004 1.146-10.062Zm-5.953 12.43a5.072 5.072 0 0 1-2.489 0V60.91c.749-.206 1.774-.206 2.489 0v16.17ZM162.96 31.052c-.034.163-.112.517-.103.68.017.31.293.25.577.25l-.043.224-1.025-.026-1.017.026.043-.224c.526.009.569-.077.672-.629l.612-3.204h-.086c-.689 0-1.008.069-1.232.861h-.241l.241-1.163 1.766.026 1.619-.026v.543c.018.232.035.456.061.68h-.241c-.104-.706-.302-.913-.957-.913h-.094l-.552 2.895ZM165.823 28.863c.034-.172.181-.793.181-.982 0-.241-.328-.241-.474-.241l.052-.207 1.292-.095-.672 2.886.017.052c.198-.465.75-.99 1.249-.99.422 0 .595.266.595.473 0 .207-.035.44-.095.646l-.198.706c-.026.095-.112.38-.112.466 0 .086.051.19.129.19.215 0 .414-.466.508-.647l.121.043c-.172.457-.543 1.068-1.025 1.068-.241 0-.457-.215-.457-.5 0-.215.078-.482.138-.689l.19-.697c.034-.138.111-.397.111-.534 0-.138-.068-.233-.198-.233-.232 0-.568.37-.689.569-.181.318-.396.654-.499 1.016l-.268.939h-.663l.767-3.24ZM171.343 31.207c-.405.672-.792.965-1.559.965-.569 0-.905-.397-.905-1.043 0-1.042.827-1.86 1.792-1.86.328 0 .784.034.784.473 0 .707-1.232 1.215-1.826 1.379-.017.129-.06.362-.06.49 0 .276.258.337.422.337.611 0 1.025-.586 1.232-.862l.12.12Zm-.431-1.516c0-.207-.137-.267-.387-.233-.491.078-.758 1-.844 1.387.413-.138 1.231-.594 1.231-1.154ZM159.457 30.518h-18.496v.336h18.496v-.336ZM192.332 30.518h-19.314v.336h19.314v-.336ZM192.265 80.732h-51.301v.336h51.301v-.336Z"/></g><g opacity=".3"><path fill="#1C253B" d="M223.985 39.002h-1.371c-.952 0-1.905-.013-2.857 0-.216 0-.33-.064-.431-.241-.8-1.346-1.626-2.692-2.438-4.038-.038-.063-.089-.14-.153-.241-.292.304-.571.584-.838.889-.05.063-.038.19-.038.292v3.326h-3.733V27.575h3.721v3.567c.025.013.05.013.063.026.191-.216.394-.432.584-.648.825-.94 1.651-1.866 2.489-2.793a.488.488 0 0 1 .33-.165c1.346-.013 2.704-.013 4.05-.013.038 0 .076.013.165.026a669.188 669.188 0 0 1-4.152 4.304c1.537 2.361 3.048 4.71 4.609 7.123ZM240.402 33.567c-.572 1.803-1.143 3.606-1.727 5.422-.482 0-.94.012-1.409-.013-.089 0-.203-.14-.242-.241-.533-1.626-1.053-3.264-1.574-4.889a.494.494 0 0 0-.127-.24c.343 1.777.254 3.554.241 5.357h-2.895v-8.29c.089 0 .191-.014.292-.014 1.067 0 2.134.013 3.2-.012.216 0 .305.063.356.266.431 1.41.876 2.819 1.345 4.317.064-.177.102-.266.127-.368.407-1.308.826-2.616 1.219-3.923.064-.216.165-.292.394-.292 1.041.012 2.095.012 3.136.012h.343v8.304h-2.933c.025-1.803-.127-3.606.317-5.383 0 0-.038 0-.063-.013ZM254.018 38.989h-2.92c.038-1.803-.14-3.593.304-5.358-.025 0-.063-.013-.089-.013a3.892 3.892 0 0 0-.101.292c-.508 1.6-1.016 3.187-1.511 4.787-.076.254-.203.33-.444.317a7.737 7.737 0 0 0-.94 0c-.216.013-.317-.05-.381-.266a377.722 377.722 0 0 0-1.574-4.952.648.648 0 0 0-.127-.241c.355 1.803.304 3.618.266 5.447h-2.92V30.71a1.56 1.56 0 0 1 .254-.026c1.079 0 2.146.013 3.225-.012.241 0 .33.089.394.304.393 1.32.812 2.629 1.218 3.949.026.089.064.165.127.317.229-.71.432-1.37.635-2.018.242-.75.47-1.511.699-2.26.063-.203.152-.292.38-.292 1.156.012 2.311.012 3.492.012.013 2.756.013 5.51.013 8.304ZM296.283 30.697v2.743h2.412v-2.743h3.302v8.279h-3.289v-3.073h-2.425v3.073h-3.314v-8.279h3.314ZM279.597 35.788h3.34c-.115 1.04-.534 1.904-1.359 2.54-.698.532-1.511.774-2.374.862-.965.102-1.93.064-2.857-.253-1.968-.673-2.882-2.298-2.793-4.267.063-1.27.495-2.374 1.511-3.2.698-.57 1.523-.875 2.425-.977 1.206-.14 2.399-.038 3.504.52 1.079.56 1.689 1.448 1.866 2.654.013.051 0 .115 0 .19h-3.326a.369.369 0 0 1-.025-.126c-.115-.622-.47-.965-1.029-1.041-.622-.076-1.117.19-1.346.762a3.745 3.745 0 0 0-.063 2.653c.216.635.711.94 1.333.902.609-.038.965-.356 1.143-1.029.012-.063.038-.127.05-.19ZM308.292 38.988h-3.301v-5.866h-2.869v-2.425h9.014v2.425h-2.856c.012 1.956.012 3.898.012 5.866ZM272.742 32.095c-1.32-2.26-4.66-2.07-5.612-.305 0 .013-.038 0-.076 0v-1.104h-2.946V41.82h3.302v-3.58c.419.482.85.825 1.409.926 1.27.241 2.425-.05 3.377-.952.787-.75 1.092-1.714 1.194-2.755.101-1.194-.051-2.324-.648-3.365Zm-2.984 4.025c-.571.838-1.752.775-2.171-.152a2.742 2.742 0 0 1-.025-2.299c.216-.495.571-.812 1.143-.812.571.013.99.292 1.193.825.127.356.178.737.254 1.117-.063.483-.127.927-.394 1.321ZM292.676 38.799c-.355-.292-.394-.673-.394-1.092.013-1.32 0-2.641 0-3.962 0-.317-.012-.634-.05-.94-.165-1.23-.762-1.878-2.019-2.158-1.257-.292-2.539-.266-3.809-.088-.737.101-1.448.304-2.044.787-.584.482-.8 1.13-.8 1.892h3.149c.228-.61.469-.775 1.117-.8.127 0 .267.012.394.025.444.05.711.28.736.597.025.305-.178.508-.61.647l-.152.038c-.52.077-1.041.166-1.562.242-.799.114-1.587.215-2.323.584-.952.482-1.321 1.27-1.27 2.298.038.952.495 1.638 1.346 2.044.914.432 1.867.394 2.831.216.712-.127 1.334-.47 1.905-.99.051.228.114.406.114.584.013.24.127.266.33.266.635-.012 1.283 0 1.918 0h1.269c-.038-.101-.051-.165-.076-.19Zm-3.949-2.095c-.33.673-1.46.889-2.031.406-.318-.267-.292-.813.089-1.08.152-.1.317-.177.495-.228.559-.152 1.117-.279 1.689-.431 0 .47-.038.914-.242 1.333Z"/><path fill="#1C253B" d="M232.163 33.579c-.267-1.13-.915-1.98-1.93-2.527-.826-.457-1.727-.622-2.667-.634-.355.038-.711.038-1.053.101-1.346.229-2.451.825-3.137 2.07-.393.71-.533 1.485-.545 2.285-.039 2.07 1.091 3.631 3.059 4.165a6.308 6.308 0 0 0 3.365 0c1.486-.407 2.476-1.346 2.882-2.845.216-.876.229-1.739.026-2.615Zm-3.428 2.628c-.178.508-.572.775-1.118.8-.546.013-.952-.216-1.168-.71-.419-.94-.432-1.905-.025-2.858.216-.482.609-.749 1.155-.749.533 0 .914.267 1.092.724.178.457.267.94.394 1.384-.115.508-.191.977-.33 1.41ZM260.719 36.489c-.177 0-.292.05-.393.203-.381.52-1.067.673-1.727.406-.622-.241-1.016-.863-.952-1.498h6.272c-.025-.33-.038-.61-.063-.876-.178-1.473-.762-2.73-2.07-3.555-.965-.61-2.031-.775-3.149-.711-2.12.114-4.063 1.447-4.317 3.923-.203 1.993.622 3.847 2.832 4.584 1.041.342 2.107.355 3.187.177.901-.152 1.726-.47 2.399-1.104a2.94 2.94 0 0 0 .889-1.537c-1.003-.012-1.955 0-2.908-.012Zm-1.561-4.025c.762.025 1.434.698 1.396 1.41h-2.92c-.025-.877.584-1.436 1.524-1.41ZM321.765 35.852c-.229-1.117-1.003-1.714-2.032-2.044-.774-.254-1.587-.216-2.387-.216h-.99v-2.907h-5.066v2.425h1.879v5.866c.076.012.114.012.165.012 1.74 0 3.466.026 5.206-.012a5.456 5.456 0 0 0 1.689-.318c1.193-.406 1.79-1.549 1.536-2.806Zm-3.809 1.181c-.508.038-1.029.013-1.587.013v-1.55c.546.026 1.079.026 1.612.09.432.05.648.342.648.749 0 .406-.229.673-.673.698Z"/><path fill="#5D7481" d="M212.128 47.872v33.175h7.862v-12.75h4.225l7.869 12.75h9.146l-8.723-13.908c4.789-.994 7.392-4.683 7.392-9.332 0-6.305-4.636-9.935-13.65-9.935h-14.121Zm7.862 6.113h5.961c4.126 0 5.695 1.279 5.695 3.934 0 2.987-1.708 4.319-5.695 4.319h-5.961v-8.253Z"/><path fill="#5D7481" d="M268.04 54.184c-3.153-4.265-7.498-6.312-12.995-6.312-9.61 0-16.061 6.405-16.061 16.73 0 10.087 6.723 16.445 15.896 16.445 5.079 0 9.424-1.947 13.246-6.04v-12.12h-14.511v5.815h6.914v3.821a9.672 9.672 0 0 1-5.497 1.775c-4.987 0-8.054-3.232-8.054-9.55 0-6.822 3.113-10.319 8.286-10.319 3.159 0 5.768 1.45 7.875 4.318l4.901-4.563Z"/><path fill="#1C253B" d="M268.125 47.872v30.513h7.862V68.298h4.226l7.881 12.749h9.146l-8.716-13.908c4.782-.994 7.385-4.683 7.385-9.332 0-6.305-4.636-9.935-13.643-9.935h-14.141Zm7.862 6.113h5.928c4.126 0 5.695 1.279 5.695 3.934 0 2.987-1.708 4.319-5.695 4.319h-5.928v-8.253Z"/><path fill="#1C253B" d="M295.738 47.872v21.485c0 7.425 4.762 11.69 13.829 11.69s13.491-4.404 13.491-11.829V47.872h-7.371V68.08c0 3.974-1.914 6.451-6.12 6.451-4.205 0-6.08-2.457-6.08-6.45V47.871h-7.749Z"/><path fill="#5D7481" d="M272.049 81.048a4.305 4.305 0 1 0 0-8.61 4.305 4.305 0 0 0 0 8.61Z"/></g><path fill="#888" d="M363.275 91.924H.092V6.326h34v.951H1.043v83.696h361.281V7.277h-72.232v-.95h73.183v85.597Z"/></g><defs><clipPath id="a"><path fill="#fff" d="M.092.962h363v91h-363z"/></clipPath><clipPath id="b"><path fill="#fff" d="M37.185 27.338h84.177v53.73H37.185z"/></clipPath></defs></svg>