<svg xmlns="http://www.w3.org/2000/svg" width="538" height="205" fill="none"><path fill="#354469" d="M57.52 9.822c3.8 5.313 4.627 13.203 4.958 16.1h2.644L63.635.323H.66v2.093h9.752V105.14c.661-4.509 1.818-11.754 4.463-16.262 3.47-6.119 8.595-9.66 9.42-10.305V40.736h9.092c7.437 0 9.917 3.38 11.239 6.601 1.653 3.542 1.818 7.568 1.983 8.534h2.149V23.83H46.61c-.165 1.288-.66 5.152-1.983 8.05-3.306 6.762-9.09 6.762-11.9 6.762h-8.595V2.416H40.33c5.95 0 12.396.805 17.19 7.407ZM116.691 66.82c-1.983 3.22-5.289 6.923-7.768 9.016-4.959 4.186-10.413 5.474-15.372 5.474-7.272 0-14.875-3.059-19.669-8.211-4.297-4.83-6.776-12.076-6.776-18.517 0-7.245 2.644-14.007 6.942-18.999 5.62-6.44 12.561-8.694 18.842-8.694 7.107 0 13.553 3.059 17.685 8.211 3.471 4.348 5.455 10.466 5.455 16.101H81.155v8.373c0 6.118.661 11.27 3.305 14.652 2.315 2.898 5.786 4.83 9.918 4.83 3.966 0 8.925-1.932 13.057-5.796 2.975-2.737 5.785-6.28 6.942-7.89l2.314 1.45Zm-13.553-17.55c.165-3.543 0-10.306-1.157-13.687-1.488-4.508-4.463-6.601-9.422-6.601-4.793 0-7.933 2.093-9.917 5.635-1.322 2.737-1.487 5.153-1.487 7.085v7.728c0-.16 21.983-.16 21.983-.16ZM172.392 35.583c4.463 4.992 7.108 12.076 7.108 18.517 0 6.6-2.645 13.685-7.108 18.677-4.793 5.152-12.396 8.694-19.999 8.694-7.603 0-15.206-3.542-19.999-8.694-4.463-4.83-7.108-12.076-7.108-18.678 0-6.44 2.645-13.524 7.108-18.516 4.793-5.313 12.231-8.694 19.999-8.694 7.768 0 15.041 3.381 19.999 8.694ZM139.336 61.99c0 3.703.661 8.856 3.14 12.237 2.81 4.025 6.446 4.83 9.917 4.83s7.273-.805 9.917-4.83c2.314-3.381 3.141-8.695 3.141-12.237V49.913c0-5.635 0-11.27-3.141-15.618-1.322-1.932-4.463-5.313-9.917-5.313s-8.595 3.22-9.917 5.313c-3.14 4.347-3.14 9.822-3.14 15.618V61.99ZM187.432 2.737V.805h12.562c4.132 0 5.95-.161 7.603-.805v53.938l11.074-10.626c5.124-4.83 6.446-7.729 6.446-9.66 0-1.128-.496-1.772-1.322-2.255-1.322-.966-2.81-.966-3.802-.966h-1.322v-2.093h21.983v2.093c-2.645.483-4.793 1.61-6.446 2.576-2.314 1.45-5.455 4.186-6.942 5.797l-6.446 6.6 21.321 32.686h4.628v2.093h-26.445V78.09h6.942l-15.372-24.152-4.297 4.187V78.09h6.942v2.093h-27.107V78.09h7.934V2.737h-7.934ZM275.527 28.177h10.909v2.093h-10.909V70.2c0 1.45.166 4.509 1.323 5.797 1.157 1.288 2.81 1.288 3.636 1.288 1.653 0 2.479-.161 4.628-.966 1.322-.644 2.644-1.127 3.801-2.576l1.323 1.449c-1.323 1.288-3.306 2.737-6.281 4.025-2.81 1.288-6.281 2.254-9.256 2.254-4.793 0-7.438-2.254-8.264-3.22-2.81-2.737-3.141-6.762-3.141-10.788V30.27h-10.247v-2.093h10.247V11.11l12.231-4.187v21.254ZM295.858 30.27v-2.093h12.397c2.81 0 3.801 0 7.768-.644v50.396h7.934v2.093h-28.099V77.93h7.934V30.27h-7.934Zm13.719-28.499c3.802 0 6.942 3.22 6.942 6.763 0 3.542-3.306 6.762-6.942 6.762-3.801 0-6.942-3.22-6.942-6.762 0-3.543 3.141-6.763 6.942-6.763ZM331.726 64.243h1.818c1.487 3.703 4.132 7.89 7.438 10.627 3.801 3.22 8.099 4.186 11.735 4.186 9.09 0 12.066-4.991 12.066-9.016 0-2.255-1.157-4.187-2.314-5.636-1.984-2.254-4.463-2.737-6.446-3.381l-10.083-2.737c-3.305-.805-6.776-2.738-8.76-4.83-1.983-2.094-3.967-5.314-3.967-10.627 0-7.085 3.471-10.949 6.446-13.042 2.976-2.093 7.438-3.22 10.744-3.22 3.14 0 6.446 1.127 7.272 1.288 2.48.805 3.967 1.77 5.455 1.77 1.157 0 2.314-.321 3.14-1.77h1.653v14.33h-1.653c-1.322-2.899-4.297-8.05-6.115-9.822-2.48-2.254-6.777-3.703-9.917-3.703-1.984 0-5.951.805-7.769 1.932-1.983 1.288-3.305 3.381-3.305 6.923 0 5.153 4.462 6.763 7.107 7.568l14.71 4.508c4.132 1.288 6.777 3.22 8.264 4.992 2.314 2.737 2.81 6.118 2.81 8.855 0 5.635-2.314 9.339-3.801 11.11-4.298 5.152-11.405 6.44-15.537 6.44-4.628 0-8.76-1.61-10.909-2.576-1.487-.644-2.975-1.288-4.297-1.288-1.653 0-3.306 1.127-4.132 3.06h-1.818l.165-15.94ZM401.639 28.177h10.909v2.093h-10.909V70.2c0 1.45.166 4.509 1.323 5.797 1.157 1.288 2.809 1.288 3.636 1.288 1.653 0 2.479-.161 4.628-.966 1.322-.644 2.644-1.127 3.801-2.576l1.323 1.449c-1.323 1.288-3.306 2.737-6.281 4.025-2.81 1.288-6.281 2.254-9.256 2.254-4.793 0-7.438-2.254-8.264-3.22-2.81-2.737-3.141-6.762-3.141-10.788V30.27h-10.247v-2.093h10.247V11.11l12.231-4.187v21.254ZM469.243 35.583c4.463 4.992 7.107 12.076 7.107 18.517 0 6.6-2.644 13.685-7.107 18.677-4.793 5.152-12.396 8.694-20 8.694-7.603 0-15.206-3.542-19.999-8.694-4.463-4.83-7.107-12.076-7.107-18.678 0-6.44 2.644-13.524 7.107-18.516 4.959-5.313 12.231-8.694 19.999-8.694 7.769 0 15.041 3.381 20 8.694ZM436.186 61.99c0 3.703.826 8.856 3.14 12.237 2.81 4.025 6.447 4.83 9.917 4.83 3.471 0 7.273-.805 9.918-4.83 2.314-3.381 3.14-8.695 3.14-12.237V49.913c0-5.635 0-11.27-3.14-15.618-1.323-1.932-4.463-5.313-9.918-5.313-5.454 0-8.594 3.22-9.917 5.313-3.14 4.347-3.14 9.822-3.14 15.618V61.99ZM507.092 28.177v2.093h-9.421l14.875 35.422 11.405-26.083c.496-1.289.992-2.738.992-4.348 0-1.61-.661-2.737-2.149-3.703-.496-.322-1.818-.966-4.959-1.127v-2.093h20v2.093c-2.149.16-4.298.805-5.95 2.093-2.314 1.771-3.471 4.508-4.794 7.245L508.58 81.632h-2.81l-21.818-51.04h-5.454v-2.093c0-.322 28.594-.322 28.594-.322ZM30.247 170.349c-5.62 6.923-11.24 10.465-16.528 10.465-3.471 0-6.612-1.449-9.422-4.508C1.487 173.247 0 170.188 0 166.807c0-5.958 4.959-11.432 15.04-16.423-4.131-5.636-6.115-9.983-6.115-13.042 0-2.898 1.323-5.475 3.802-7.89 2.48-2.415 5.124-3.542 8.099-3.542 2.81 0 5.289.805 7.107 2.415 1.818 1.61 2.81 3.703 2.81 6.441 0 4.508-2.81 8.694-8.264 12.236 1.652 2.254 5.62 7.407 11.9 15.618 3.306-3.381 5.124-5.474 5.785-6.118 2.975-2.737 5.124-4.186 6.611-4.186 1.323 0 2.48.483 3.471 1.288.992.805 1.488 1.932 1.488 3.22 0 3.381-1.653 4.991-4.628 4.991-1.983 0-3.306-.966-3.967-2.898-.165-.483-.33-1.127-.496-1.932-.165-.644-.165-.966-.165-.966-.496 0-2.81 2.576-7.107 7.567 5.289 6.924 9.752 10.466 13.553 10.466 2.48 0 4.628-2.093 6.611-6.118l1.158.805c-1.323 3.542-2.645 6.118-3.967 7.728-1.984 2.576-4.463 4.025-7.438 4.025-3.967.322-8.925-3.22-15.041-10.143Zm-.992-1.127c-5.454-6.441-10.082-12.398-13.718-17.872-5.455 2.898-8.264 6.279-8.264 10.465 0 3.059 1.322 6.119 4.132 9.178 2.644 3.059 5.62 4.669 8.594 4.669 2.81-.161 5.95-2.254 9.256-6.44Zm-7.603-23.186c5.124-3.381 7.603-7.084 7.603-11.109 0-2.094-.66-3.865-1.983-5.314a6.857 6.857 0 0 0-5.124-2.254c-1.818 0-3.47.483-4.628 1.61-1.157 1.127-1.818 2.576-1.818 4.347-.165 2.738 1.818 6.924 5.95 12.72ZM215.365 174.052c-4.297 5.796-9.421 6.28-11.735 6.28-3.306 0-6.115-.645-8.429-3.221a14.805 14.805 0 0 1-2.81-4.669c-1.653 1.288-4.793 3.703-7.273 5.152-2.975 1.61-7.272 2.738-11.074 2.738-4.958 0-8.264-1.933-9.917-3.221-3.471-2.737-4.628-6.118-4.628-10.143 0-5.958 2.81-9.822 7.934-12.72 1.818-1.127 8.264-4.347 20.826-4.347h4.132v-13.686c0-2.415-.165-4.992-2.314-6.763-1.322-1.127-3.802-1.449-5.95-1.449-1.653 0-3.471.322-4.959.644-2.81.644-3.14 2.093-3.14 3.059 0 1.127 1.157 2.255 2.148 4.348 2.314 5.152-.661 10.304-6.446 10.304-3.801 0-7.933-2.254-7.933-7.245 0-5.313 3.305-8.212 7.272-10.144 4.793-2.576 9.917-3.22 15.041-3.22 8.925 0 15.041 2.737 17.19 6.118 1.652 2.577 1.652 5.797 1.652 8.695v31.719c0 1.449 0 4.025 3.141 4.025 1.983 0 4.628-2.254 5.785-3.864l1.487 1.61Zm-22.809-22.38h-1.983c-10.909 0-14.545 3.703-15.537 5.796-.992 1.932-1.322 5.635-1.322 8.212 0 2.254.33 5.152 2.148 7.245 1.819 1.771 3.802 2.254 5.62 2.254 2.975 0 4.463-.805 6.777-2.254 2.81-1.771 4.297-2.898 4.297-4.347v-16.906ZM220.984 129.13v-2.093h12.562c2.479 0 3.801 0 7.603-.644v10.788c1.157-2.254 2.975-5.314 4.628-6.763 1.983-2.093 6.115-4.669 11.404-4.669 3.306 0 5.455.966 6.777 1.932 1.983 1.449 2.975 3.542 2.975 6.28 0 1.61-.331 3.059-1.653 4.347-1.322 1.449-2.975 2.093-4.628 2.093-3.801 0-6.446-2.415-6.446-5.635 0-.322 0-.805.165-1.288 0-.322.166-.645.166-.967 0-1.288-.992-2.254-2.976-2.254-1.983 0-4.297 1.288-6.28 3.704-3.967 4.991-4.298 10.304-4.298 12.719v30.109h7.934v2.093h-27.933v-2.093h7.934V129.13h-7.934ZM296.025 127.037h10.909v2.093h-10.909v39.931c0 1.449.165 4.508 1.322 5.796 1.157 1.288 2.81 1.288 3.637 1.288 1.652 0 2.479-.161 4.628-.966 1.322-.644 2.644-1.127 3.801-2.576l1.322 1.449c-1.322 1.288-3.305 2.737-6.28 4.025-2.976 1.288-6.281 2.254-9.256 2.254-4.794 0-7.438-2.254-8.265-3.22-2.809-2.737-3.14-6.601-3.14-10.626V129.13h-10.248v-2.093h10.248V109.97l12.231-4.186v21.253ZM318.668 129.13v-2.093h12.561c2.976 0 3.637 0 7.604-.644v7.729c1.818-1.933 4.793-4.509 7.272-5.797 3.636-2.093 6.942-2.576 10.413-2.576 3.802 0 9.256.644 12.892 4.186 1.818 1.771 3.306 4.187 3.306 8.051v38.964h7.933v2.093h-27.106v-2.093h6.942v-39.125c0-1.771.165-3.864-1.818-6.119-1.818-2.254-3.967-2.737-6.612-2.737-2.479 0-4.628.483-7.272 2.415-1.818 1.288-4.298 3.704-5.95 5.636v39.769h6.942v2.093h-27.107v-2.093h7.934V129.13h-7.934ZM437.837 165.68c-1.983 3.22-5.289 6.923-7.768 9.016-4.959 4.186-10.413 5.475-15.371 5.475-7.273 0-14.876-3.06-19.669-8.212-4.298-4.83-6.777-12.237-6.777-18.516 0-7.246 2.645-14.008 6.777-18.999 5.619-6.441 12.561-8.695 18.842-8.695 7.107 0 13.553 3.059 17.686 8.212 3.471 4.347 5.454 10.465 5.454 16.262h-34.875v8.211c0 6.119.826 11.11 3.306 14.652 2.314 2.898 5.785 4.83 9.917 4.83 3.967 0 8.925-1.932 13.057-5.796 2.975-2.737 5.785-6.279 6.777-7.89l2.644 1.45Zm-13.388-17.551c.166-3.542 0-10.304-1.157-13.685-1.487-4.509-4.628-6.602-9.421-6.602-4.793 0-7.934 2.093-9.917 5.636-1.322 2.737-1.487 5.152-1.487 7.084v7.567h21.982ZM446.266 129.13v-2.093h12.397c2.479 0 3.801 0 7.603-.644v10.788c1.157-2.254 2.975-5.314 4.628-6.763 1.983-2.093 6.115-4.669 11.404-4.669 3.306 0 5.455.966 6.777 1.932 1.983 1.449 2.975 3.542 2.975 6.28 0 1.61-.331 3.059-1.653 4.347-1.322 1.449-2.975 2.093-4.628 2.093-3.801 0-6.446-2.415-6.446-5.635 0-.322 0-.805.165-1.288 0-.322.166-.645.166-.967 0-1.288-.992-2.254-2.975-2.254-1.984 0-4.298 1.288-6.281 3.704-3.967 4.991-4.298 10.304-4.298 12.719v30.109h7.934v2.093h-27.768v-2.093h7.934V129.13h-7.934ZM497.671 163.103h1.819c1.487 3.704 4.132 7.89 7.437 10.788 3.802 3.22 8.099 4.186 11.735 4.186 9.091 0 12.066-4.991 12.066-9.016 0-2.254-1.157-4.186-2.314-5.636-1.983-2.254-4.462-2.737-6.446-3.381l-10.082-2.737c-3.306-.805-6.777-2.737-8.76-4.669-1.984-2.093-3.967-5.314-3.967-10.627 0-7.084 3.471-10.949 6.446-13.042 2.975-2.093 7.438-3.22 10.744-3.22 3.14 0 6.446 1.127 7.272 1.288 2.479.805 3.967 1.771 5.454 1.771 1.157 0 2.314-.322 3.141-1.771h1.653v14.33h-1.653c-1.323-2.898-4.298-8.05-6.116-9.822-2.479-2.254-6.776-3.703-9.917-3.703-1.983 0-5.785.644-7.768 1.932-1.984 1.288-3.306 3.381-3.306 6.924 0 5.152 4.463 6.601 7.107 7.567l14.711 4.508c4.132 1.289 6.776 3.221 8.264 4.992 2.314 2.737 2.81 6.118 2.81 8.855 0 5.797-2.314 9.339-3.802 11.11-4.297 5.152-11.57 6.441-15.537 6.441-4.627 0-8.76-1.611-10.908-2.577-1.488-.644-2.975-1.288-4.298-1.288-1.653 0-3.305 1.127-4.132 3.059h-1.818l.165-16.262ZM146.441 106.589c-6.611-5.958-16.032-7.246-24.627-7.246H85.947v2.415h9.587v102.403c.66-4.508 1.818-11.754 4.462-16.262 3.471-6.118 8.926-9.822 9.587-10.305v-30.27h12.231c9.917 0 19.669-1.932 25.454-7.406 2.314-2.254 6.611-7.407 6.611-16.423 0-3.542-.661-10.949-7.438-16.906Zm-8.264 21.575c0 4.508-1.818 10.627-7.107 13.847-3.967 2.254-10.744 2.737-12.892 2.737h-8.595v-43.151h8.595c4.628 0 10.082.322 14.545 3.704 5.454 4.186 5.454 10.465 5.454 13.847v9.016Z"/></svg>