<svg xmlns="http://www.w3.org/2000/svg" width="427" height="163" fill="none"><path fill="#ABB3BE" d="M45.58 7.815c3.012 4.228 3.667 10.504 3.929 12.81h2.096L50.425.258H.525v1.665H8.25v81.724c.524-3.586 1.441-9.35 3.537-12.937 2.75-4.868 6.81-7.686 7.465-8.198V32.41h7.204c5.894 0 7.859 2.69 8.907 5.251 1.31 2.819 1.44 6.02 1.571 6.79h1.703V18.96h-1.703c-.13 1.024-.524 4.099-1.572 6.404-2.619 5.38-7.203 5.38-9.43 5.38h-6.81V1.924h12.835c4.715 0 9.823.64 13.622 5.891ZM92.47 53.16c-1.572 2.562-4.192 5.509-6.157 7.174-3.929 3.33-8.251 4.355-12.18 4.355-5.763 0-11.788-2.434-15.587-6.533-3.405-3.843-5.37-9.607-5.37-14.73 0-5.765 2.096-11.145 5.501-15.116 4.454-5.123 9.955-6.917 14.932-6.917 5.632 0 10.74 2.434 14.014 6.533 2.75 3.459 4.322 8.326 4.322 12.81H64.31v6.66c0 4.868.524 8.967 2.62 11.657 1.834 2.306 4.584 3.843 7.858 3.843 3.144 0 7.073-1.537 10.348-4.612 2.357-2.177 4.584-4.995 5.5-6.276l1.834 1.153ZM81.73 39.199c.13-2.818 0-8.198-.918-10.888-1.178-3.586-3.536-5.252-7.465-5.252-3.798 0-6.287 1.666-7.859 4.484-1.048 2.177-1.179 4.099-1.179 5.636v6.148c0-.128 17.42-.128 17.42-.128ZM136.608 28.31c3.537 3.971 5.632 9.607 5.632 14.731 0 5.252-2.095 10.888-5.632 14.86-3.798 4.098-9.823 6.916-15.848 6.916S108.71 62 104.912 57.9c-3.536-3.843-5.632-9.607-5.632-14.859 0-5.124 2.096-10.76 5.632-14.73 3.798-4.228 9.692-6.918 15.848-6.918 6.156 0 11.919 2.69 15.848 6.917Zm-26.195 21.008c0 2.946.524 7.045 2.489 9.735 2.226 3.202 5.108 3.843 7.858 3.843 2.751 0 5.763-.64 7.859-3.843 1.833-2.69 2.488-6.917 2.488-9.735V39.71c0-4.484 0-8.967-2.488-12.425-1.048-1.538-3.537-4.228-7.859-4.228s-6.811 2.562-7.858 4.227c-2.489 3.46-2.489 7.814-2.489 12.426v9.607ZM148.527 2.178V.64h9.954c3.275 0 4.716-.128 6.025-.64v42.912l8.776-8.455c4.06-3.843 5.108-6.148 5.108-7.685 0-.897-.393-1.41-1.048-1.794-1.048-.768-2.227-.768-3.012-.768h-1.048v-1.665h17.42v1.665c-2.096.384-3.799 1.28-5.108 2.05-1.834 1.152-4.323 3.33-5.501 4.61l-5.109 5.253 16.896 26.003h3.668v1.665h-20.956v-1.665h5.501l-12.181-19.214-3.406 3.33v15.884h5.501v1.665h-21.48v-1.665h6.287V2.178h-6.287ZM218.338 22.417h8.644v1.665h-8.644v31.767c0 1.153.131 3.587 1.047 4.612.917 1.024 2.227 1.024 2.882 1.024 1.31 0 1.965-.128 3.667-.768 1.048-.513 2.096-.897 3.013-2.05l1.048 1.153c-1.048 1.025-2.62 2.178-4.978 3.202-2.226 1.025-4.977 1.794-7.334 1.794-3.799 0-5.894-1.794-6.549-2.562-2.227-2.178-2.489-5.38-2.489-8.582v-29.59h-8.12v-1.665h8.12V8.839l9.693-3.33v16.908ZM234.448 24.082v-1.665h9.823c2.227 0 3.013 0 6.156-.513v40.094h6.287v1.665h-22.266v-1.665h6.287V24.082h-6.287ZM245.319 1.41c3.012 0 5.501 2.562 5.501 5.38s-2.62 5.38-5.501 5.38c-3.013 0-5.501-2.562-5.501-5.38s2.488-5.38 5.501-5.38ZM262.87 51.11h1.44c1.179 2.946 3.275 6.276 5.894 8.454 3.013 2.562 6.418 3.33 9.3 3.33 7.203 0 9.561-3.97 9.561-7.173 0-1.794-.917-3.33-1.834-4.484-1.572-1.793-3.536-2.177-5.108-2.69l-7.989-2.177c-2.62-.64-5.37-2.178-6.942-3.843s-3.144-4.227-3.144-8.454c0-5.636 2.751-8.71 5.108-10.376 2.358-1.665 5.894-2.562 8.514-2.562 2.488 0 5.108.897 5.763 1.025 1.965.64 3.143 1.41 4.322 1.41.917 0 1.834-.257 2.489-1.41h1.309v11.4h-1.309c-1.048-2.305-3.406-6.404-4.846-7.813-1.965-1.794-5.371-2.947-7.859-2.947-1.572 0-4.715.641-6.156 1.538-1.572 1.024-2.62 2.69-2.62 5.508 0 4.099 3.537 5.38 5.633 6.02l11.656 3.587c3.275 1.024 5.37 2.562 6.549 3.97 1.834 2.178 2.227 4.868 2.227 7.046 0 4.483-1.834 7.43-3.013 8.838-3.405 4.1-9.037 5.124-12.311 5.124-3.668 0-6.942-1.28-8.645-2.05-1.179-.512-2.357-1.024-3.405-1.024-1.31 0-2.62.897-3.275 2.434h-1.44l.131-12.682ZM318.273 22.417h8.644v1.665h-8.644v31.767c0 1.153.131 3.587 1.048 4.612.916 1.024 2.226 1.024 2.881 1.024 1.31 0 1.965-.128 3.667-.768 1.048-.513 2.096-.897 3.013-2.05l1.048 1.153c-1.048 1.025-2.62 2.178-4.977 3.202-2.227 1.025-4.978 1.794-7.335 1.794-3.798 0-5.894-1.794-6.549-2.562-2.226-2.178-2.488-5.38-2.488-8.582v-29.59h-8.121v-1.665h8.121V8.839l9.692-3.33v16.908ZM371.842 28.31c3.536 3.971 5.632 9.607 5.632 14.731 0 5.252-2.096 10.888-5.632 14.86-3.798 4.098-9.823 6.916-15.848 6.916S343.944 62 340.146 57.9c-3.537-3.843-5.632-9.607-5.632-14.859 0-5.124 2.095-10.76 5.632-14.73 3.929-4.228 9.692-6.918 15.848-6.918 6.156 0 11.919 2.69 15.848 6.917Zm-26.195 21.008c0 2.946.655 7.045 2.488 9.735 2.227 3.202 5.108 3.843 7.859 3.843 2.75 0 5.763-.64 7.859-3.843 1.833-2.69 2.488-6.917 2.488-9.735V39.71c0-4.484 0-8.967-2.488-12.425-1.048-1.538-3.537-4.228-7.859-4.228s-6.811 2.562-7.859 4.227c-2.488 3.46-2.488 7.814-2.488 12.426v9.607ZM401.836 22.416v1.666h-7.466l11.788 28.18 9.037-20.75c.393-1.026.786-2.178.786-3.46 0-1.28-.524-2.177-1.703-2.946-.393-.256-1.44-.768-3.929-.896v-1.666h15.848v1.666c-1.703.128-3.405.64-4.715 1.665-1.834 1.409-2.75 3.587-3.798 5.764l-14.67 33.305h-2.226l-17.289-40.606h-4.322v-1.665c0-.257 22.659-.257 22.659-.257ZM23.969 135.524c-4.454 5.508-8.907 8.326-13.098 8.326-2.75 0-5.239-1.153-7.466-3.587C1.18 137.829 0 135.395 0 132.706c0-4.74 3.93-9.095 11.919-13.066-3.275-4.483-4.846-7.942-4.846-10.376 0-2.305 1.048-4.355 3.012-6.276 1.965-1.922 4.06-2.818 6.418-2.818 2.227 0 4.191.64 5.632 1.921 1.44 1.281 2.227 2.946 2.227 5.124 0 3.586-2.227 6.917-6.55 9.735 1.31 1.793 4.454 5.892 9.431 12.425 2.62-2.69 4.06-4.355 4.584-4.868 2.358-2.177 4.06-3.33 5.24-3.33 1.047 0 1.964.384 2.75 1.025.786.64 1.179 1.537 1.179 2.562 0 2.69-1.31 3.971-3.668 3.971-1.571 0-2.62-.769-3.143-2.306-.131-.384-.262-.897-.393-1.537-.131-.513-.131-.769-.131-.769-.393 0-2.227 2.05-5.632 6.021 4.191 5.508 7.728 8.326 10.74 8.326 1.965 0 3.667-1.665 5.24-4.868l.916.641c-1.048 2.818-2.096 4.867-3.143 6.148-1.572 2.05-3.537 3.203-5.894 3.203-3.144.256-7.073-2.562-11.92-8.07Zm-.786-.897c-4.322-5.124-7.99-9.863-10.871-14.219-4.322 2.306-6.549 4.996-6.549 8.327 0 2.433 1.048 4.867 3.274 7.301 2.096 2.434 4.454 3.715 6.811 3.715 2.227-.128 4.715-1.794 7.335-5.124Zm-6.025-18.446c4.06-2.69 6.025-5.636 6.025-8.838 0-1.665-.524-3.074-1.572-4.227a5.424 5.424 0 0 0-4.06-1.794c-1.44 0-2.75.385-3.667 1.281-.917.897-1.441 2.05-1.441 3.459-.131 2.178 1.44 5.508 4.715 10.119ZM170.662 138.47c-3.405 4.611-7.466 4.995-9.299 4.995-2.62 0-4.846-.512-6.68-2.562a11.778 11.778 0 0 1-2.227-3.714c-1.309 1.024-3.798 2.946-5.763 4.099-2.357 1.281-5.763 2.177-8.775 2.177-3.929 0-6.549-1.537-7.859-2.562-2.75-2.177-3.667-4.867-3.667-8.07 0-4.739 2.227-7.813 6.287-10.119 1.441-.897 6.549-3.459 16.503-3.459h3.274v-10.888c0-1.921-.131-3.971-1.833-5.38-1.048-.896-3.013-1.152-4.715-1.152-1.31 0-2.751.256-3.93.512-2.226.512-2.488 1.665-2.488 2.434 0 .896.917 1.793 1.702 3.458 1.834 4.099-.523 8.198-5.108 8.198-3.012 0-6.287-1.793-6.287-5.764 0-4.227 2.62-6.533 5.763-8.07 3.799-2.049 7.859-2.562 11.919-2.562 7.073 0 11.919 2.178 13.622 4.868 1.31 2.049 1.31 4.611 1.31 6.917v25.234c0 1.153 0 3.203 2.488 3.203 1.572 0 3.667-1.793 4.584-3.074l1.179 1.281Zm-18.075-17.806h-1.571c-8.645 0-11.526 2.947-12.312 4.612-.786 1.537-1.048 4.483-1.048 6.533 0 1.793.262 4.099 1.703 5.764 1.44 1.409 3.012 1.793 4.453 1.793 2.358 0 3.536-.64 5.37-1.793 2.227-1.409 3.405-2.306 3.405-3.459v-13.45ZM175.115 102.731v-1.665h9.955c1.964 0 3.012 0 6.025-.512v8.582c.916-1.793 2.357-4.227 3.667-5.38 1.572-1.665 4.846-3.715 9.037-3.715 2.62 0 4.322.769 5.37 1.537 1.572 1.153 2.358 2.818 2.358 4.996 0 1.281-.262 2.434-1.31 3.459-1.048 1.152-2.357 1.665-3.667 1.665-3.013 0-5.108-1.922-5.108-4.483 0-.257 0-.641.131-1.025 0-.256.131-.513.131-.769 0-1.025-.786-1.793-2.358-1.793s-3.405 1.025-4.977 2.946c-3.143 3.971-3.405 8.198-3.405 10.119v23.954h6.286v1.665h-22.135v-1.665h6.287v-37.916h-6.287ZM234.579 101.067h8.644v1.665h-8.644V134.5c0 1.152.131 3.586 1.048 4.611s2.226 1.025 2.881 1.025c1.31 0 1.965-.128 3.668-.769 1.047-.512 2.095-.896 3.012-2.049l1.048 1.153c-1.048 1.024-2.62 2.177-4.977 3.202-2.358 1.025-4.977 1.793-7.335 1.793-3.798 0-5.894-1.793-6.549-2.562-2.226-2.177-2.488-5.252-2.488-8.454v-29.718h-8.121v-1.665h8.121V87.489l9.692-3.33v16.908ZM252.523 102.731v-1.665h9.954c2.357 0 2.881 0 6.025-.512v6.148c1.44-1.537 3.798-3.586 5.763-4.611 2.881-1.665 5.501-2.05 8.251-2.05 3.013 0 7.335.513 10.216 3.331 1.441 1.409 2.62 3.33 2.62 6.404v30.999h6.287v1.665h-21.48v-1.665h5.501v-31.127c0-1.409.13-3.074-1.441-4.867-1.441-1.794-3.144-2.178-5.239-2.178-1.965 0-3.668.384-5.763 1.922-1.441 1.024-3.406 2.946-4.715 4.483v31.639h5.501v1.665h-21.48v-1.665h6.286v-37.916h-6.286ZM346.956 131.809c-1.571 2.561-4.191 5.508-6.155 7.173-3.93 3.33-8.252 4.355-12.181 4.355-5.763 0-11.788-2.434-15.586-6.533-3.406-3.843-5.37-9.735-5.37-14.731 0-5.764 2.095-11.144 5.37-15.115 4.453-5.123 9.954-6.917 14.931-6.917 5.632 0 10.74 2.434 14.014 6.533 2.751 3.459 4.323 8.326 4.323 12.938h-27.636v6.532c0 4.868.654 8.839 2.619 11.657 1.834 2.306 4.584 3.843 7.859 3.843 3.143 0 7.072-1.537 10.347-4.612 2.357-2.177 4.584-4.995 5.37-6.276l2.095 1.153Zm-10.609-13.963c.131-2.818 0-8.198-.916-10.888-1.179-3.586-3.668-5.252-7.466-5.252s-6.287 1.666-7.859 4.484c-1.048 2.177-1.178 4.099-1.178 5.636v6.02h17.419ZM353.636 102.731v-1.665h9.824c1.964 0 3.012 0 6.025-.512v8.582c.916-1.793 2.357-4.227 3.667-5.38 1.572-1.665 4.846-3.715 9.037-3.715 2.62 0 4.322.769 5.37 1.537 1.572 1.153 2.358 2.818 2.358 4.996 0 1.281-.262 2.434-1.31 3.459-1.048 1.152-2.357 1.665-3.667 1.665-3.013 0-5.108-1.922-5.108-4.483 0-.257 0-.641.131-1.025 0-.256.131-.513.131-.769 0-1.025-.786-1.793-2.358-1.793s-3.405 1.025-4.977 2.946c-3.143 3.971-3.405 8.198-3.405 10.119v23.954h6.286v1.665h-22.004v-1.665h6.287v-37.916h-6.287ZM394.37 129.759h1.441c1.179 2.946 3.274 6.277 5.894 8.582 3.012 2.562 6.418 3.331 9.299 3.331 7.204 0 9.561-3.971 9.561-7.173 0-1.794-.916-3.331-1.833-4.484-1.572-1.793-3.537-2.177-5.108-2.69l-7.99-2.177c-2.619-.641-5.37-2.178-6.942-3.715-1.571-1.665-3.143-4.227-3.143-8.454 0-5.636 2.75-8.711 5.108-10.376 2.358-1.665 5.894-2.562 8.513-2.562 2.489 0 5.109.897 5.763 1.025 1.965.64 3.144 1.409 4.323 1.409.916 0 1.833-.256 2.488-1.409h1.31v11.4h-1.31c-1.048-2.305-3.405-6.404-4.846-7.813-1.965-1.794-5.37-2.947-7.859-2.947-1.571 0-4.584.513-6.155 1.538-1.572 1.024-2.62 2.69-2.62 5.508 0 4.099 3.536 5.252 5.632 6.02l11.657 3.587c3.274 1.024 5.37 2.562 6.549 3.971 1.833 2.177 2.226 4.867 2.226 7.045 0 4.611-1.833 7.429-3.012 8.838-3.405 4.099-9.168 5.124-12.312 5.124-3.667 0-6.942-1.281-8.644-2.049-1.179-.513-2.358-1.025-3.406-1.025-1.309 0-2.619.896-3.274 2.434h-1.441l.131-12.938ZM116.045 84.799c-5.239-4.74-12.705-5.765-19.516-5.765H68.108v1.922h7.596v81.468c.524-3.587 1.441-9.351 3.537-12.938 2.75-4.867 7.072-7.814 7.596-8.198v-24.082h9.692c7.859 0 15.587-1.537 20.171-5.892 1.834-1.793 5.239-5.892 5.239-13.066 0-2.818-.524-8.71-5.894-13.45Zm-6.549 17.164c0 3.587-1.441 8.454-5.632 11.016-3.143 1.794-8.513 2.178-10.216 2.178h-6.81v-34.33h6.81c3.667 0 7.99.257 11.526 2.947 4.322 3.33 4.322 8.326 4.322 11.016v7.173Z"/></svg>