<svg width="122" height="78" viewBox="0 0 122 78" fill="none" xmlns="http://www.w3.org/2000/svg">
<path d="M46.4804 76.8459C40.9662 75.5198 38.0593 71.5116 36.8306 66.2678C35.3622 60.0596 35.4821 53.8212 37.43 47.7034C38.9584 42.9418 42.1949 39.9883 47.0498 38.8733C51.2453 37.9089 55.4708 37.939 59.6064 38.9938C64.3713 40.2294 67.3082 43.5144 68.7167 48.1253C70.6946 54.6048 70.5747 61.1746 68.6867 67.6541C67.0085 73.4705 62.9029 76.5144 57.0591 77.3281C53.0134 77.9308 48.6381 77.3582 46.4804 76.8459ZM47.8889 58.0103C48.1885 61.3253 47.9788 64.7007 48.4283 68.0157C48.7579 70.3664 50.586 71.6623 53.0134 71.6924C55.3209 71.7226 57.179 70.487 57.5386 68.2267C58.3178 61.2349 58.2578 54.6952 57.5386 47.9144C57.0891 45.3527 55.261 44.1171 52.7737 44.2376C50.3762 44.3281 48.668 45.6541 48.3384 48.1253C47.9488 51.35 48.1885 54.6349 47.8889 58.0103Z" fill="#0B1429"/>
<path d="M105.487 67.3829C104.109 72.6569 100.663 75.9719 95.2683 77.0569C91.3425 77.8404 87.3867 77.8404 83.4908 76.9363C78.2764 75.7007 75.1897 72.1445 73.8112 67.1418C72.073 60.7528 72.1929 54.3336 74.1108 48.0048C75.6392 42.9117 79.0855 39.8377 84.3 38.7829C88.3756 37.9692 92.4513 37.9692 96.467 39.0541C102.85 40.8021 105.338 45.7747 106.356 51.7719C107.076 57.95 106.626 63.7966 105.487 67.3829ZM84.5997 57.8897C84.8694 61.2651 84.5997 64.4897 85.0492 67.7144C85.4088 70.3363 87.087 71.6322 89.6043 71.6925C92.0617 71.7528 94.0995 70.5473 94.3093 67.9254C94.8487 61.0541 94.8487 54.7856 94.2794 48.0048C94.0396 45.2623 92.1816 44.1774 89.6343 44.2076C87.147 44.2678 85.4088 45.5336 85.0492 48.1555C84.5997 51.4103 84.8694 54.7254 84.5997 57.8897Z" fill="#0B1429"/>
<path d="M9.52984 65.1828C11.5976 70.276 14.5944 71.9637 18.8799 70.5472C21.3972 69.7335 22.5959 68.0458 22.536 65.4239C22.476 63.0732 21.2773 61.3554 18.79 60.8431C16.5124 60.3609 14.1749 60.3308 11.7175 60.0595C11.7175 58.2513 11.7175 56.3828 11.7175 54.3938C13.6954 54.2431 15.6733 54.1828 17.6512 53.9417C20.5281 53.6102 22.0565 51.802 21.9366 49.0897C21.8168 46.2869 20.2284 44.7801 17.2616 44.6294C14.2648 44.4787 12.7964 45.5034 10.5787 49.3006C7.55195 48.8787 4.46524 48.4568 1.19872 47.9746C2.78703 43.876 5.42422 41.1637 9.23016 39.7171C14.7443 37.6376 20.4382 37.6075 26.0123 39.4458C31.5564 41.2541 34.1636 45.9856 32.6952 50.8376C31.9759 53.2184 30.2977 54.6952 28.2299 55.7801C27.5407 56.1719 26.7914 56.4732 25.7725 56.9253C26.8514 57.3472 27.6905 57.6787 28.5296 58.0102C36.1415 61.0541 34.9428 70.3965 30.7772 73.6513C26.6716 76.876 21.9366 77.7198 16.7821 77.7198C13.4557 77.7198 11.1781 77.2376 8.45099 76.4541C3.80594 75.128 0.988946 71.602 0 66.4787C3.17661 66.0267 6.29329 65.6349 9.52984 65.1828Z" fill="#0B1429"/>
<path d="M77.8572 15.2158C81.5133 16.5418 82.8019 18.5911 82.5922 22.7199C82.3824 26.6076 80.3745 29.561 76.8383 29.9226C72.6727 30.3446 68.4472 30.013 64.1318 30.013C64.1318 20.761 64.1318 11.298 64.1318 1.89524C68.4472 1.89524 72.7926 1.59387 77.0481 1.98565C80.0748 2.25689 81.4833 4.75826 81.7231 7.74182C81.9628 10.6048 81.3335 13.1062 78.5764 14.613C78.3966 14.7035 78.2168 14.7939 78.067 14.9144C77.9771 14.9144 77.9471 15.0048 77.8572 15.2158ZM69.7359 26.1555C72.1333 26.0651 74.6207 26.6377 76.0591 24.2569C77.078 22.5391 77.0181 20.55 75.8793 18.8925C74.321 16.6624 71.9835 17.4761 69.7658 17.4459C69.7359 20.3994 69.7359 23.1418 69.7359 26.1555ZM69.7958 5.78291C69.7958 8.37469 69.7958 10.7857 69.7958 13.287C72.0134 13.4076 74.3809 13.7994 75.4298 11.5994C76.0292 10.3637 75.9393 8.28428 75.28 7.10894C74.1412 5.05963 71.8037 5.75278 69.7958 5.78291Z" fill="#0B1429"/>
<path d="M6.53292 30.3144C4.46513 30.3144 2.75695 30.3144 0.898926 30.3144C0.898926 20.7309 0.898926 11.2377 0.898926 1.62402C6.86257 1.62402 12.7962 1.62402 18.8798 1.62402C18.8798 11.1473 18.8798 20.6405 18.8798 30.2542C17.1116 30.2542 15.4035 30.2542 13.3956 30.2542C13.3956 22.298 13.3956 14.3117 13.3956 6.23498C10.9982 6.23498 8.87043 6.23498 6.56289 6.23498C6.53292 14.2213 6.53292 22.1473 6.53292 30.3144Z" fill="#0B1429"/>
<path d="M103.929 8.58561C103.06 3.16095 99.9137 0.749994 94.1898 0.900679C89.0952 1.02123 85.8587 3.79383 85.4391 9.03767C85.1095 13.5884 85.1095 18.1993 85.4391 22.75C85.7987 27.9034 89.0053 30.676 94.04 30.7664C100.123 30.887 103.12 28.6267 103.959 23.1116C104.319 20.7308 104.379 18.2897 104.559 15.8486C104.379 13.4377 104.319 10.9966 103.929 8.58561ZM98.1756 23.6842C97.9058 25.4925 96.797 26.7281 94.7592 26.7281C92.7214 26.7281 91.3728 25.5527 91.3129 23.7445C91.1331 18.5308 91.163 13.287 91.3428 8.04315C91.4028 6.17465 92.8412 5.05958 94.7892 5.05958C96.797 5.08972 97.9058 6.35547 98.1756 8.16369C98.5651 10.6952 98.2655 13.2568 98.5052 15.8185C98.2954 18.4404 98.5651 21.0925 98.1756 23.6842Z" fill="#0B1429"/>
<path d="M61.7942 30.3144C59.7563 30.3144 57.9583 30.3144 56.0403 30.3144C55.5608 28.3253 55.1113 26.3966 54.6318 24.3473C52.0845 24.3473 49.5672 24.3473 46.93 24.3473C46.4505 26.3363 46.001 28.2952 45.5215 30.2842C43.6335 30.2842 41.8654 30.2842 39.9175 30.2842C39.9474 29.8021 39.8875 29.3801 40.0074 28.9582C42.255 20.3692 44.5326 11.8103 46.7502 3.22124C47.1098 1.86507 47.6792 1.44315 49.0877 1.47329C54.3022 1.53357 54.3022 1.47329 55.6807 6.56644C57.6286 13.8897 59.5765 21.2432 61.4945 28.5966C61.6144 29.0788 61.6743 29.6212 61.7942 30.3144ZM53.6429 19.4349C52.7138 15.1555 51.8448 11.1171 50.9757 7.04863C50.8259 7.04863 50.676 7.07877 50.5262 7.07877C49.6571 11.1473 48.788 15.2158 47.889 19.4349C49.8968 19.4349 51.605 19.4349 53.6429 19.4349Z" fill="#0B1429"/>
<path d="M22.686 30.224C22.686 20.6404 22.686 11.2076 22.686 1.7144C26.9115 1.7144 31.0771 1.32262 35.1528 1.83495C39.0786 2.31714 41.3861 7.07879 40.547 11.75C39.7678 16.2404 37.1007 18.4706 32.3058 18.7117C28.2901 18.8925 28.2901 18.8925 28.2601 22.961C28.2601 25.3117 28.2601 27.6623 28.2601 30.1939C26.4021 30.224 24.6639 30.224 22.686 30.224ZM28.4399 5.75276C28.4399 8.7966 28.4399 11.6295 28.4399 14.5226C30.6575 14.613 32.9051 15.0952 34.2237 12.9254C35.3026 11.1473 35.2726 9.1281 34.2537 7.35002C32.9351 5.05961 30.6575 5.81303 28.4399 5.75276Z" fill="#0B1429"/>
<path d="M107.615 0.75H111.661C113.909 0.75 114.388 2.34726 114.388 3.73356C114.388 4.72808 113.968 6.17466 112.89 6.32534V6.41575C114.897 6.62671 113.339 9.06781 114.418 11.2377H112.41C112.051 10.4842 112.23 10.0021 112.11 8.58562C112.021 7.31986 111.211 7.38014 110.942 7.38014H109.623V11.2377H107.615V0.75ZM109.623 5.45137H111.121C111.571 5.45137 112.26 5.36096 112.26 4.12534C112.26 2.98014 111.811 2.76918 111.062 2.76918H109.623V5.45137Z" fill="#0B1429"/>
<path d="M117.115 0.75V6.86781C117.115 8.91712 117.535 9.51986 118.554 9.51986C119.572 9.51986 119.992 8.94726 119.992 6.86781V0.75H122V7.25959C122 9.58014 121.46 11.539 118.554 11.539C115.647 11.539 115.107 9.58014 115.107 7.25959V0.75H117.115Z" fill="#0B1429"/>
</svg>
