<svg width="100" height="101" viewBox="0 0 100 101" fill="none" xmlns="http://www.w3.org/2000/svg">
<path d="M49.9997 62.6413C56.9032 62.6413 62.4997 57.0448 62.4997 50.1413C62.4997 43.2377 56.9032 37.6413 49.9997 37.6413C43.0961 37.6413 37.4997 43.2377 37.4997 50.1413C37.4997 57.0448 43.0961 62.6413 49.9997 62.6413Z" stroke="#1C253B" stroke-width="5.35714" stroke-linecap="round" stroke-linejoin="round"/>
<path d="M78.03 61.5049C77.5257 62.6474 77.3753 63.9147 77.5981 65.1435C77.8209 66.3723 78.4067 67.5061 79.28 68.3989L79.5073 68.6261C80.2116 69.3297 80.7704 70.1652 81.1516 71.0849C81.5329 72.0046 81.7291 72.9904 81.7291 73.986C81.7291 74.9815 81.5329 75.9674 81.1516 76.887C80.7704 77.8067 80.2116 78.6422 79.5073 79.3458C78.8037 80.0502 77.9681 80.609 77.0485 80.9902C76.1288 81.3715 75.143 81.5677 74.1474 81.5677C73.1518 81.5677 72.166 81.3715 71.2463 80.9902C70.3267 80.609 69.4911 80.0502 68.7875 79.3458L68.5603 79.1185C67.6676 78.2453 66.5337 77.6595 65.3049 77.4367C64.0762 77.2139 62.8088 77.3643 61.6663 77.8685C60.546 78.3487 59.5905 79.146 58.9175 80.1622C58.2445 81.1785 57.8833 82.3694 57.8785 83.5882V84.2322C57.8785 86.2414 57.0803 88.1683 55.6596 89.589C54.2388 91.0098 52.3119 91.8079 50.3027 91.8079C48.2935 91.8079 46.3666 91.0098 44.9458 89.589C43.5251 88.1683 42.7269 86.2414 42.7269 84.2322V83.8913C42.6976 82.6375 42.2918 81.4216 41.5622 80.4015C40.8326 79.3814 39.8131 78.6045 38.636 78.1716C37.4936 77.6673 36.2262 77.5169 34.9974 77.7397C33.7687 77.9625 32.6348 78.5483 31.7421 79.4216L31.5148 79.6489C30.8112 80.3532 29.9757 80.912 29.056 81.2932C28.1364 81.6745 27.1505 81.8707 26.155 81.8707C25.1594 81.8707 24.1736 81.6745 23.2539 81.2932C22.3342 80.912 21.4987 80.3532 20.7951 79.6489C20.0908 78.9453 19.532 78.1098 19.1507 77.1901C18.7695 76.2704 18.5733 75.2846 18.5733 74.289C18.5733 73.2934 18.7695 72.3076 19.1507 71.3879C19.532 70.4683 20.0908 69.6327 20.7951 68.9292L21.0224 68.7019C21.8956 67.8092 22.4814 66.6753 22.7042 65.4465C22.927 64.2178 22.7766 62.9504 22.2724 61.8079C21.7922 60.6876 20.995 59.7321 19.9787 59.0591C18.9625 58.3861 17.7716 58.0249 16.5527 58.0201H15.9088C13.8995 58.0201 11.9726 57.2219 10.5519 55.8012C9.13117 54.3804 8.33301 52.4535 8.33301 50.4443C8.33301 48.4351 9.13117 46.5082 10.5519 45.0874C11.9726 43.6667 13.8995 42.8685 15.9088 42.8685H16.2497C17.5034 42.8392 18.7194 42.4334 19.7394 41.7038C20.7595 40.9742 21.5365 39.9547 21.9694 38.7776C22.4736 37.6352 22.624 36.3678 22.4012 35.139C22.1784 33.9103 21.5926 32.7764 20.7194 31.8837L20.4921 31.6564C19.7877 30.9528 19.229 30.1173 18.8477 29.1976C18.4665 28.278 18.2702 27.2922 18.2702 26.2966C18.2702 25.301 18.4665 24.3152 18.8477 23.3955C19.229 22.4758 19.7877 21.6403 20.4921 20.9367C21.1957 20.2324 22.0312 19.6736 22.9509 19.2923C23.8706 18.9111 24.8564 18.7149 25.8519 18.7149C26.8475 18.7149 27.8333 18.9111 28.753 19.2923C29.6727 19.6736 30.5082 20.2324 31.2118 20.9367L31.4391 21.164C32.3318 22.0372 33.4656 22.623 34.6944 22.8458C35.9232 23.0686 37.1905 22.9182 38.333 22.414H38.636C39.7564 21.9338 40.7119 21.1366 41.3849 20.1203C42.0579 19.1041 42.4191 17.9132 42.4239 16.6943V16.0504C42.4239 14.0412 43.2221 12.1142 44.6428 10.6935C46.0635 9.27277 47.9905 8.47461 49.9997 8.47461C52.0089 8.47461 53.9358 9.27277 55.3565 10.6935C56.7773 12.1142 57.5754 14.0412 57.5754 16.0504V16.3913C57.5803 17.6102 57.9415 18.801 58.6145 19.8173C59.2875 20.8335 60.243 21.6308 61.3633 22.111C62.5058 22.6152 63.7731 22.7656 65.0019 22.5428C66.2307 22.32 67.3645 21.7342 68.2573 20.861L68.4845 20.6337C69.1881 19.9293 70.0236 19.3706 70.9433 18.9893C71.863 18.6081 72.8488 18.4118 73.8444 18.4118C74.8399 18.4118 75.8258 18.6081 76.7454 18.9893C77.6651 19.3706 78.5006 19.9293 79.2042 20.6337C79.9086 21.3373 80.4674 22.1728 80.8486 23.0925C81.2299 24.0122 81.4261 24.998 81.4261 25.9935C81.4261 26.9891 81.2299 27.9749 80.8486 28.8946C80.4674 29.8143 79.9086 30.6498 79.2042 31.3534L78.9769 31.5807C78.1037 32.4734 77.5179 33.6072 77.2951 34.836C77.0723 36.0648 77.2227 37.3321 77.7269 38.4746V38.7776C78.2071 39.898 79.0044 40.8535 80.0206 41.5265C81.0369 42.1995 82.2278 42.5607 83.4466 42.5655H84.0906C86.0998 42.5655 88.0267 43.3637 89.4474 44.7844C90.8682 46.2051 91.6663 48.1321 91.6663 50.1413C91.6663 52.1505 90.8682 54.0774 89.4474 55.4981C88.0267 56.9189 86.0998 57.717 84.0906 57.717H83.7497C82.5308 57.7219 81.3399 58.0831 80.3237 58.7561C79.3074 59.4291 78.5101 60.3846 78.03 61.5049Z" stroke="#1C253B" stroke-width="5.35714" stroke-linecap="round" stroke-linejoin="round"/>
</svg>
