<svg width="100" height="100" viewBox="0 0 100 100" fill="none" xmlns="http://www.w3.org/2000/svg">
<path d="M20.8333 37.4999V70.8333M39.5833 37.4999V70.8333M60.4167 37.4999V70.8333M79.1667 37.4999V70.8333M12.5 77.4999L12.5 80.8332C12.5 83.1668 12.5 84.3336 12.9541 85.2249C13.3536 86.0089 13.991 86.6463 14.775 87.0458C15.6663 87.4999 16.8331 87.4999 19.1667 87.4999H80.8333C83.1669 87.4999 84.3337 87.4999 85.225 87.0458C86.009 86.6463 86.6464 86.0089 87.0459 85.2249C87.5 84.3336 87.5 83.1668 87.5 80.8333V77.4999C87.5 75.1664 87.5 73.9996 87.0459 73.1083C86.6464 72.3243 86.009 71.6869 85.225 71.2874C84.3337 70.8333 83.1669 70.8333 80.8333 70.8333H19.1667C16.8331 70.8333 15.6663 70.8333 14.775 71.2874C13.991 71.6869 13.3536 72.3243 12.9541 73.1083C12.5 73.9996 12.5 75.1664 12.5 77.4999ZM48.5538 12.8213L17.7205 19.6732C15.8577 20.0871 14.9263 20.2941 14.2311 20.7949C13.6179 21.2367 13.1364 21.837 12.8381 22.5314C12.5 23.3188 12.5 24.2729 12.5 26.1811L12.5 30.8332C12.5 33.1668 12.5 34.3336 12.9541 35.2249C13.3536 36.0089 13.991 36.6463 14.775 37.0458C15.6663 37.4999 16.8331 37.4999 19.1667 37.4999H80.8333C83.1669 37.4999 84.3337 37.4999 85.225 37.0458C86.009 36.6463 86.6464 36.0089 87.0459 35.2249C87.5 34.3336 87.5 33.1668 87.5 30.8333V26.1811C87.5 24.2729 87.5 23.3188 87.1619 22.5314C86.8636 21.837 86.3821 21.2367 85.7689 20.7949C85.0737 20.2941 84.1423 20.0871 82.2795 19.6732L51.4462 12.8213C50.9065 12.7014 50.6367 12.6414 50.364 12.6175C50.1218 12.5963 49.8782 12.5963 49.636 12.6175C49.3633 12.6414 49.0935 12.7014 48.5538 12.8213Z" stroke="#1C253B" stroke-width="5.35714" stroke-linecap="round" stroke-linejoin="round"/>
</svg>
