<svg width="100" height="101" viewBox="0 0 100 101" fill="none" xmlns="http://www.w3.org/2000/svg">
<path d="M31.2497 46.2591H19.1663C16.8328 46.2591 15.666 46.2591 14.7747 46.7133C13.9907 47.1127 13.3533 47.7501 12.9538 48.5342C12.4997 49.4255 12.4997 50.5922 12.4997 52.9258V87.9258M68.7497 46.2591H80.833C83.1666 46.2591 84.3333 46.2591 85.2246 46.7133C86.0086 47.1127 86.6461 47.7501 87.0455 48.5342C87.4997 49.4255 87.4997 50.5922 87.4997 52.9258V87.9258M68.7497 87.9258V26.2591C68.7497 21.592 68.7497 19.2585 67.8414 17.4759C67.0424 15.9078 65.7676 14.633 64.1996 13.8341C62.417 12.9258 60.0834 12.9258 55.4163 12.9258H44.583C39.9159 12.9258 37.5824 12.9258 35.7998 13.8341C34.2317 14.633 32.9569 15.9078 32.158 17.4759C31.2497 19.2585 31.2497 21.592 31.2497 26.2591V87.9258M91.6663 87.9258H8.33301M45.833 29.5924H54.1663M45.833 46.2591H54.1663M45.833 62.9258H54.1663" stroke="#1C253B" stroke-width="5.35714" stroke-linecap="round" stroke-linejoin="round"/>
</svg>
