<svg width="100" height="101" viewBox="0 0 100 101" fill="none" xmlns="http://www.w3.org/2000/svg">
<path d="M43.75 75.2852L60.4167 50.2852H35.4167L52.0833 25.2852M62.5 75.2852H63.3333C70.334 75.2852 73.8343 75.2852 76.5082 73.9227C78.8602 72.7243 80.7725 70.8121 81.9709 68.46C83.3333 65.7861 83.3333 62.2858 83.3333 55.2852V41.9518C83.3333 38.0769 83.3333 36.1395 82.9074 34.5499C81.7516 30.2363 78.3822 26.8669 74.0686 25.7111C72.479 25.2852 70.5416 25.2852 66.6667 25.2852M33.3333 25.2852H32.5C25.4993 25.2852 21.999 25.2852 19.3251 26.6476C16.9731 27.846 15.0608 29.7582 13.8624 32.1103C12.5 34.7842 12.5 38.2845 12.5 45.2852V58.6185C12.5 62.4934 12.5 64.4308 12.9259 66.0204C14.0818 70.334 17.4511 73.7034 21.7648 74.8592C23.3543 75.2852 25.2918 75.2852 29.1667 75.2852" stroke="#1C253B" stroke-width="5.35714" stroke-linecap="round" stroke-linejoin="round"/>
</svg>
