<svg width="409" height="54" viewBox="0 0 409 54" fill="none" xmlns="http://www.w3.org/2000/svg">
<path d="M44.2087 42.694C42.3627 42.694 40.706 42.694 39.0967 42.694C35.5468 42.694 31.9968 42.6467 28.4469 42.694C27.6422 42.694 27.2163 42.4574 26.8376 41.7947C23.8556 36.7774 20.779 31.7602 17.7497 26.7429C17.6077 26.5063 17.4184 26.2223 17.1817 25.8436C16.0931 26.9796 15.0518 28.0209 14.0578 29.1569C13.8685 29.3936 13.9158 29.8669 13.9158 30.2455C13.9158 33.9375 13.9158 37.6768 13.9158 41.3687C13.9158 41.7947 13.9158 42.1734 13.9158 42.6467C9.22986 42.6467 4.6386 42.6467 0 42.6467C0 28.4469 0 14.3418 0 0.0946652C4.59126 0.0946652 9.13519 0.0946652 13.8685 0.0946652C13.8685 4.54393 13.8685 8.9932 13.8685 13.3951C13.9631 13.4425 14.0578 13.4425 14.1051 13.4898C14.8151 12.6851 15.5724 11.8805 16.2824 11.0758C19.359 7.57322 22.4357 4.11794 25.5596 0.662657C25.8436 0.331328 26.3643 0.0473326 26.7903 0.0473326C31.8075 1.11759e-08 36.8721 0 41.8894 0C42.0314 0 42.1734 0.0473326 42.5047 0.0946652C37.2981 5.53792 32.1862 10.8392 27.0269 16.1404C32.7542 24.9443 38.3867 33.7008 44.2087 42.694Z" fill="#0B1429"/>
<path d="M105.41 22.4359C103.28 29.1572 101.15 35.8784 98.9724 42.6469C97.1738 42.6469 95.4698 42.6943 93.7185 42.5996C93.3872 42.5996 92.9612 42.079 92.8192 41.7003C90.8312 35.6417 88.8906 29.5358 86.9499 23.4772C86.8553 23.1459 86.7606 22.8619 86.4766 22.5779C87.7546 29.2045 87.4233 35.8311 87.3759 42.5523C83.7787 42.5523 80.2287 42.5523 76.5841 42.5523C76.5841 32.2811 76.5841 22.0099 76.5841 11.6441C76.9154 11.6441 77.2941 11.5968 77.6728 11.5968C81.6487 11.5968 85.6246 11.6441 89.6006 11.5494C90.4052 11.5494 90.7365 11.7861 90.9259 12.5434C92.5352 17.7973 94.1918 23.0512 95.9431 28.6365C96.1798 27.9738 96.3218 27.6425 96.4165 27.2638C97.9311 22.3886 99.4931 17.5133 100.96 12.6381C101.197 11.8334 101.576 11.5494 102.428 11.5494C106.309 11.5968 110.238 11.5968 114.119 11.5968C114.545 11.5968 114.924 11.5968 115.397 11.5968C115.397 22.0099 115.397 32.2338 115.397 42.5523C111.8 42.5523 108.202 42.5523 104.463 42.5523C104.558 35.8311 103.99 29.1098 105.646 22.4833C105.646 22.4833 105.504 22.4833 105.41 22.4359Z" fill="#0B1429"/>
<path d="M156.15 42.6467C152.553 42.6467 149.003 42.6467 145.264 42.6467C145.406 35.9255 144.743 29.2516 146.399 22.6724C146.305 22.6724 146.163 22.625 146.068 22.625C145.926 23.0037 145.784 23.3824 145.689 23.7137C143.796 29.6776 141.903 35.5942 140.057 41.5581C139.773 42.5047 139.3 42.7887 138.4 42.7414C137.217 42.6467 136.034 42.6941 134.898 42.7414C134.093 42.7887 133.714 42.5521 133.478 41.7474C131.584 35.5942 129.596 29.4409 127.608 23.2877C127.514 22.9564 127.372 22.6724 127.135 22.3884C128.46 29.1096 128.271 35.8782 128.129 42.6941C124.484 42.6941 120.887 42.6941 117.243 42.6941C117.243 32.3756 117.243 22.1517 117.243 11.7859C117.527 11.7385 117.858 11.6912 118.189 11.6912C122.213 11.6912 126.188 11.7385 130.212 11.6439C131.111 11.6439 131.442 11.9752 131.679 12.7798C133.146 17.7024 134.708 22.5777 136.223 27.5003C136.318 27.8316 136.46 28.1156 136.696 28.6836C137.548 26.033 138.306 23.5717 139.063 21.1577C139.962 18.3651 140.814 15.5251 141.666 12.7325C141.903 11.9752 142.234 11.6439 143.086 11.6439C147.393 11.6912 151.701 11.6912 156.103 11.6912C156.15 21.9624 156.15 32.2336 156.15 42.6467Z" fill="#0B1429"/>
<path d="M313.721 11.7355C313.721 15.1908 313.721 18.5514 313.721 21.9594C316.75 21.9594 319.685 21.9594 322.714 21.9594C322.714 18.5514 322.714 15.1908 322.714 11.7355C326.879 11.7355 330.95 11.7355 335.021 11.7355C335.021 22.0067 335.021 32.2779 335.021 42.5964C330.997 42.5964 326.927 42.5964 322.762 42.5964C322.762 38.8098 322.762 35.0232 322.762 31.1419C319.685 31.1419 316.75 31.1419 313.721 31.1419C313.721 34.8812 313.721 38.7151 313.721 42.5964C309.556 42.5964 305.485 42.5964 301.367 42.5964C301.367 32.3252 301.367 22.1013 301.367 11.7355C305.438 11.7355 309.508 11.7355 313.721 11.7355Z" fill="#0B1429"/>
<path d="M251.526 30.7187C255.691 30.7187 259.809 30.7187 263.974 30.7187C263.548 34.6 261.986 37.8186 258.91 40.1852C256.306 42.1732 253.277 43.0725 250.058 43.4039C246.461 43.7825 242.864 43.6405 239.409 42.4572C232.072 39.9486 228.664 33.89 228.995 26.5534C229.232 21.8202 230.841 17.7022 234.628 14.6256C237.231 12.4957 240.308 11.3597 243.669 10.981C248.165 10.4603 252.614 10.839 256.732 12.9216C260.756 15.0043 263.028 18.3176 263.69 22.8142C263.738 23.0035 263.69 23.2402 263.69 23.5242C259.572 23.5242 255.502 23.5242 251.289 23.5242C251.242 23.3822 251.194 23.2402 251.194 23.0508C250.768 20.7315 249.443 19.4535 247.36 19.1695C245.041 18.8856 243.195 19.8795 242.343 22.0095C241.065 25.2755 240.971 28.5887 242.107 31.902C242.911 34.2687 244.757 35.4046 247.076 35.2626C249.348 35.1206 250.674 33.9373 251.336 31.4287C251.384 31.192 251.478 30.9554 251.526 30.7187Z" fill="#0B1429"/>
<path d="M358.496 42.6437C354.331 42.6437 350.308 42.6437 346.19 42.6437C346.19 35.3545 346.19 28.1126 346.19 20.776C342.545 20.776 339.09 20.776 335.493 20.776C335.493 17.6994 335.493 14.7648 335.493 11.7355C346.663 11.7355 357.881 11.7355 369.099 11.7355C369.099 14.7175 369.099 17.6521 369.099 20.776C365.549 20.776 362.046 20.776 358.449 20.776C358.496 28.0653 358.496 35.3071 358.496 42.6437Z" fill="#0B1429"/>
<path d="M225.966 16.9429C221.043 8.51769 208.595 9.22768 205.045 15.8069C205.045 15.8542 204.903 15.8069 204.761 15.8069C204.761 14.4343 204.761 13.109 204.761 11.689C201.022 11.689 197.424 11.689 193.78 11.689C193.78 25.5574 193.78 39.3786 193.78 53.1997C197.898 53.1997 201.921 53.1997 206.086 53.1997C206.086 48.7504 206.086 44.4432 206.086 39.8519C207.648 41.6505 209.258 42.9285 211.34 43.3072C216.073 44.2065 220.381 43.1178 223.931 39.7572C226.865 36.9646 228.001 33.3673 228.38 29.486C228.759 25.0368 228.191 20.8242 225.966 16.9429ZM214.843 31.9473C212.713 35.0713 208.311 34.8346 206.749 31.3793C205.471 28.5867 205.424 25.6521 206.654 22.8121C207.459 20.9662 208.784 19.7829 210.914 19.7829C213.044 19.8302 214.606 20.8715 215.363 22.8595C215.837 24.1848 216.026 25.6048 216.31 27.0247C216.073 28.8234 215.837 30.48 214.843 31.9473Z" fill="#0B1429"/>
<path d="M300.278 41.9358C298.953 40.8471 298.811 39.4271 298.811 37.8652C298.858 32.9426 298.811 28.02 298.811 23.0974C298.811 21.9141 298.764 20.7307 298.622 19.5948C298.006 15.0035 295.782 12.5895 291.096 11.5482C286.41 10.4596 281.629 10.5542 276.896 11.2169C274.151 11.5956 271.5 12.3529 269.275 14.1515C267.098 15.9502 266.293 18.3641 266.293 21.2041C270.317 21.2041 274.198 21.2041 278.032 21.2041C278.884 18.9321 279.783 18.3168 282.197 18.2221C282.671 18.2221 283.191 18.2694 283.665 18.3168C285.321 18.5061 286.315 19.3581 286.41 20.5414C286.505 21.6774 285.747 22.4347 284.138 22.9554C283.949 23.0027 283.759 23.05 283.57 23.0974C281.629 23.3814 279.689 23.7127 277.748 23.9967C274.766 24.4227 271.831 24.8013 269.086 26.174C265.536 27.9726 264.164 30.9073 264.353 34.7412C264.495 38.2911 266.199 40.8471 269.37 42.3618C272.778 43.9711 276.328 43.8291 279.925 43.1664C282.576 42.6931 284.895 41.4151 287.025 39.4745C287.215 40.3264 287.451 40.9891 287.451 41.6518C287.499 42.5511 287.925 42.6457 288.682 42.6457C291.048 42.5984 293.462 42.6457 295.829 42.6457C297.344 42.6457 298.858 42.6457 300.562 42.6457C300.42 42.2671 300.373 42.0304 300.278 41.9358ZM285.558 34.1259C284.327 36.6345 280.115 37.4392 277.985 35.6405C276.801 34.6465 276.896 32.6112 278.316 31.6172C278.884 31.2386 279.499 30.9546 280.162 30.7653C282.245 30.1973 284.327 29.7239 286.457 29.1559C286.457 30.9073 286.315 32.5639 285.558 34.1259Z" fill="#0B1429"/>
<path d="M74.6906 22.4824C73.6966 18.2698 71.2827 15.0985 67.4961 13.0632C64.4195 11.3593 61.0588 10.7439 57.5562 10.6966C56.2309 10.8386 54.9056 10.8386 53.6276 11.0753C48.6104 11.9273 44.4924 14.1519 41.9365 18.7905C40.4691 21.4411 39.9485 24.3284 39.9012 27.3104C39.7592 35.0256 43.9718 40.8475 51.3083 42.8355C55.4736 43.9714 59.6862 43.9714 63.8515 42.8355C69.3894 41.3208 73.0813 37.8182 74.596 32.2329C75.4006 28.967 75.4479 25.7484 74.6906 22.4824ZM61.9108 32.2803C61.2482 34.1736 59.7809 35.1676 57.7455 35.2622C55.7102 35.3096 54.1956 34.4576 53.3909 32.6116C51.829 29.109 51.7816 25.5117 53.2963 21.9618C54.1009 20.1631 55.5682 19.1691 57.6035 19.1691C59.5915 19.1691 61.0115 20.1631 61.6742 21.8671C62.3368 23.5711 62.6681 25.3697 63.1415 27.0264C62.7155 28.9197 62.4315 30.671 61.9108 32.2803Z" fill="#0B1429"/>
<path d="M181.142 33.3204C180.479 33.3204 180.053 33.5098 179.674 34.0778C178.254 36.0184 175.698 36.5864 173.237 35.5924C170.918 34.6931 169.45 32.3738 169.687 30.0072C177.402 30.0072 185.165 30.0072 193.069 30.0072C192.975 28.7765 192.927 27.7352 192.833 26.7412C192.17 21.2506 189.993 16.5647 185.117 13.4881C181.52 11.2161 177.544 10.6008 173.379 10.8375C165.474 11.2634 158.233 16.2334 157.286 25.4632C156.529 32.8945 159.605 39.805 167.841 42.5503C171.722 43.8283 175.698 43.8756 179.722 43.213C183.082 42.645 186.159 41.4617 188.667 39.095C190.324 37.5331 191.46 35.6871 191.981 33.3678C188.241 33.3204 184.691 33.3678 181.142 33.3204ZM175.32 18.316C178.16 18.4107 180.668 20.9193 180.526 23.5699C176.929 23.5699 173.332 23.5699 169.64 23.5699C169.545 20.304 171.817 18.2213 175.32 18.316Z" fill="#0B1429"/>
<path d="M408.716 30.955C407.864 26.7897 404.977 24.5651 401.143 23.3344C398.256 22.3878 395.226 22.5298 392.245 22.5298C391.061 22.5298 389.831 22.5298 388.553 22.5298C388.553 18.8378 388.553 15.2879 388.553 11.6906C382.163 11.6906 375.915 11.6906 369.667 11.6906C369.667 14.7199 369.667 17.6545 369.667 20.7311C372.033 20.7311 374.305 20.7311 376.672 20.7311C376.672 24.4704 376.672 28.115 376.672 31.7596C376.672 35.3569 376.672 39.0015 376.672 42.5988C376.956 42.6462 377.098 42.6461 377.287 42.6461C383.772 42.6461 390.209 42.7408 396.694 42.5988C398.824 42.5515 401.001 42.1255 402.989 41.4155C407.438 39.9009 409.663 35.6409 408.716 30.955ZM394.516 35.3569C392.623 35.4989 390.683 35.4043 388.6 35.4043C388.6 33.5583 388.6 31.665 388.6 29.6297C390.635 29.7243 392.623 29.7243 394.611 29.961C396.22 30.1503 397.025 31.239 397.025 32.7536C397.025 34.2683 396.173 35.2623 394.516 35.3569Z" fill="#0B1429"/>
</svg>
