<svg width="168" height="52" viewBox="0 0 168 52" fill="none" xmlns="http://www.w3.org/2000/svg">
<path d="M0 0.93457V51.0865H11.8847V31.8127H18.2726L30.1672 51.0865H43.9943L30.808 30.0605C38.047 28.5587 41.9818 22.9818 41.9818 15.9531C41.9818 6.42134 34.9732 0.93457 21.3464 0.93457H0ZM11.8847 10.176H20.8958C27.1335 10.176 29.5064 12.1084 29.5064 16.1233C29.5064 20.6389 26.9232 22.6514 20.8958 22.6514H11.8847V10.176Z" fill="#5D7481"/>
<path d="M84.5229 10.4763C79.757 4.02839 73.1889 0.93457 64.8786 0.93457C50.3507 0.93457 40.5986 10.6165 40.5986 26.2258C40.5986 41.4746 50.7612 51.0865 64.6283 51.0865C72.3078 51.0865 78.8759 48.1429 84.653 41.9552V23.6326H62.7159V32.4234H73.1688V38.2006C70.7369 39.9209 67.8374 40.8571 64.8586 40.8839C57.3193 40.8839 52.6835 35.9979 52.6835 26.4461C52.6835 16.1333 57.3894 10.8468 65.209 10.8468C69.9849 10.8468 73.9298 13.0395 77.1137 17.3749L84.5229 10.4763Z" fill="#5D7481"/>
<path d="M84.6523 0.93457V47.0615H96.537V31.8127H102.925L114.84 51.0865H128.667L115.49 30.0605C122.719 28.5587 126.654 22.9818 126.654 15.9531C126.654 6.42134 119.646 0.93457 106.029 0.93457H84.6523ZM96.537 10.176H105.498C111.736 10.176 114.109 12.1084 114.109 16.1233C114.109 20.6389 111.526 22.6514 105.498 22.6514H96.537V10.176Z" fill="#1C253B"/>
<path d="M126.396 0.93457V33.4147C126.396 44.6385 133.595 51.0865 147.302 51.0865C161.009 51.0865 167.697 44.4283 167.697 33.2044V0.93457H156.554V31.4823C156.554 37.4897 153.66 41.2343 147.302 41.2343C140.944 41.2343 138.111 37.5197 138.111 31.4823V0.93457H126.396Z" fill="#1C253B"/>
<path d="M90.5813 51.0875C91.8684 51.0875 93.1267 50.7058 94.1969 49.9907C95.2672 49.2756 96.1013 48.2592 96.5939 47.07C97.0865 45.8808 97.2154 44.5722 96.9643 43.3098C96.7131 42.0474 96.0933 40.8877 95.1832 39.9776C94.273 39.0674 93.1134 38.4476 91.8509 38.1965C90.5885 37.9454 89.2799 38.0742 88.0908 38.5668C86.9016 39.0594 85.8851 39.8935 85.17 40.9638C84.4549 42.034 84.0732 43.2923 84.0732 44.5795C84.0732 46.3055 84.7589 47.9608 85.9794 49.1813C87.1999 50.4018 88.8552 51.0875 90.5813 51.0875Z" fill="#5D7481"/>
</svg>
